<?xml version="1.0" encoding="UTF-8" standalone="no"?>
<!-- Created with Inkscape (http://www.inkscape.org/) -->

<svg
   xmlns:dc="http://purl.org/dc/elements/1.1/"
   xmlns:cc="http://creativecommons.org/ns#"
   xmlns:rdf="http://www.w3.org/1999/02/22-rdf-syntax-ns#"
   xmlns:svg="http://www.w3.org/2000/svg"
   xmlns="http://www.w3.org/2000/svg"
   xmlns:sodipodi="http://sodipodi.sourceforge.net/DTD/sodipodi-0.dtd"
   xmlns:inkscape="http://www.inkscape.org/namespaces/inkscape"
   id="svg2"
   version="1.1"
   inkscape:version="0.91 r13725"
   xml:space="preserve"
   width="594.83954"
   height="810"
   viewBox="0 0 594.83955 810"
   sodipodi:docname="publicdomainq-business-man-advice.svg"
   inkscape:export-filename="/media/sdb1/_GRAFIKA/Publicdomainq/lidi/publicdomainq-business-man-advice.png"
   inkscape:export-xdpi="90.024696"
   inkscape:export-ydpi="90.024696"><title
     id="title7771">Business man - advice</title><metadata
     id="metadata8"><rdf:RDF><cc:Work
         rdf:about=""><dc:format>image/svg+xml</dc:format><dc:type
           rdf:resource="http://purl.org/dc/dcmitype/StillImage" /><dc:title>Business man - advice</dc:title><cc:license
           rdf:resource="http://creativecommons.org/publicdomain/zero/1.0/" /><dc:subject><rdf:Bag><rdf:li>man</rdf:li><rdf:li>male</rdf:li><rdf:li>advice</rdf:li><rdf:li>work</rdf:li><rdf:li>office</rdf:li><rdf:li>show</rdf:li><rdf:li>explain</rdf:li><rdf:li>suit</rdf:li><rdf:li>tie</rdf:li><rdf:li>publicdomainq.net</rdf:li></rdf:Bag></dc:subject><dc:description>This image was adapted from a picture posted to publicdomainq.net. All of the images on these sites are in the public domain i.e. CC0. This site is only in Japanese but can be easily navigated with Google Translate.</dc:description></cc:Work><cc:License
         rdf:about="http://creativecommons.org/publicdomain/zero/1.0/"><cc:permits
           rdf:resource="http://creativecommons.org/ns#Reproduction" /><cc:permits
           rdf:resource="http://creativecommons.org/ns#Distribution" /><cc:permits
           rdf:resource="http://creativecommons.org/ns#DerivativeWorks" /></cc:License></rdf:RDF></metadata><defs
     id="defs6" /><sodipodi:namedview
     pagecolor="#ffffff"
     bordercolor="#666666"
     borderopacity="1"
     objecttolerance="10"
     gridtolerance="10"
     guidetolerance="10"
     inkscape:pageopacity="0"
     inkscape:pageshadow="2"
     inkscape:window-width="1920"
     inkscape:window-height="1125"
     id="namedview4"
     showgrid="false"
     inkscape:zoom="0.75642628"
     inkscape:cx="292.25346"
     inkscape:cy="366.46764"
     inkscape:window-x="0"
     inkscape:window-y="0"
     inkscape:window-maximized="1"
     inkscape:current-layer="svg2"
     fit-margin-top="5"
     fit-margin-left="5"
     fit-margin-bottom="5"
     fit-margin-right="5" /><g
     id="g12"
     transform="matrix(0.45424728,0,0,-0.45424728,4.9665022,804.95642)"><path
       d="M 538.547,7 504.906,219.672 502.711,237 c 0,0 -166.063,-186.1484 -234.234,-199.5391 -53.024,-10.4101 -69.93,10.1211 -88.68,61.3711 -16.5,45.098 -48.75,192.5 -57.094,218.898 -4.375,13.86 0.344,31.149 9.485,45.622 l 131.937,71.32 c 10.699,0.887 25.215,-0.082 26.793,-14.184 1.449,-13.168 8.652,-68.297 16.891,-124.308 l 2.875,-8.25 c 0,0 111.254,189.48 139.632,222.402 51.504,59.75 291.985,132.02 291.985,132.02 l 170,0 c 0,0 225.249,-90.09 258.749,-99.77 56.25,-16.25 97.7,-183.383 97.7,-535.16012 L 538.547,7"
       style="fill:#6167a9;fill-opacity:1;fill-rule:nonzero;stroke:none"
       id="path14"
       inkscape:connector-curvature="0" /><path
       d="m 84.5898,763.242 c 0,0 -43.8281,128.821 -64.5898,172.481 -20.78125,43.707 3.4336,68.597 26.6641,53.375 23.207,-15.266 44.5117,-37.653 57.2659,-92.047 12.765,-54.414 20.976,-118.672 20.976,-118.672 L 84.5898,763.242"
       style="fill:#fcd0b4;fill-opacity:1;fill-rule:nonzero;stroke:none"
       id="path16"
       inkscape:connector-curvature="0" /><path
       d="m 237.969,453.121 c 13.687,5.078 23.015,-5.941 23.015,-5.941 l 12.332,-57.289 c 0.137,-28.129 -72.402,-82.86 -128.957,-71.84 0,0 -14.98,54.031 -15.812,61.359 -0.836,7.34 13.48,20.488 13.48,20.488 l 95.942,53.223"
       style="fill:#ffffff;fill-opacity:1;fill-rule:nonzero;stroke:none"
       id="path18"
       inkscape:connector-curvature="0" /><path
       d="m 227.336,504.141 c 0,0 4.898,-45.219 15.453,-81.25 l 0.922,-2.403 c -9.066,-17.156 -35.344,-40.879 -71.723,-49.238 -10.699,-2.461 -17.574,-2.5 -21.871,-1.84 l -2.633,8.442 c -8.851,37.418 -21.8,84.269 -34.453,101.308 -21.738,29.301 -135.8279,137.371 -98.6365,193.121 l 4.7149,5.899 c 0,0 0.8164,27.59 20.8203,44.652 l 6.082,4.34 c 0,0 30.5352,46.258 82.4413,51.168 51.879,4.902 99.11,-20.199 89.137,-83 l 8.988,24.269 c 21.785,35.391 49.75,40.762 46.637,13.161 -3.125,-27.571 -9.121,-78.508 -3.996,-105.79 5.14,-27.242 3.941,-97.699 -54.043,-131.019"
       style="fill:#fcd0b4;fill-opacity:1;fill-rule:nonzero;stroke:none"
       id="path20"
       inkscape:connector-curvature="0" /><path
       d="m 776.422,672.582 c 0,0 -57.207,-10.512 -66.758,-86.25 C 702.945,533.07 695.113,403.891 766.5,121.738 l 120.645,-2.269 c 72.011,283.722 64.16,413.453 57.421,466.863 -9.55,75.738 -66.777,86.25 -66.777,86.25 l -101.367,0"
       style="fill:#ffffff;fill-opacity:1;fill-rule:nonzero;stroke:none"
       id="path22"
       inkscape:connector-curvature="0" /><path
       d="M 794.02,7 C 783.746,43.1289 774.605,89.6797 766.5,121.738 l -2.207,13.602 43.809,344.742 -11.211,46.25 -0.176,11.199 30.39,40.051 30.938,-40.75 -0.723,-10.5 -11.191,-46.25 44.766,-341.41 -3.75,-19.203 C 879.176,88.0781 870.23,42.2891 860.191,7"
       style="fill:#f0374b;fill-opacity:1;fill-rule:nonzero;stroke:none"
       id="path24"
       inkscape:connector-curvature="0" /><path
       d="m 890.777,691 c 0,0 2.176,-35.262 1.661,-53.418 0,0 -19.161,-46.25 -65.489,-60 -46.308,13.75 -65.488,60 -65.488,60 0.254,-0.281 -1.914,53.418 -1.914,53.418"
       style="fill:#fcd0b4;fill-opacity:1;fill-rule:nonzero;stroke:none"
       id="path26"
       inkscape:connector-curvature="0" /><path
       d="m 427.688,1143.03 c -21.25,59.58 -17.243,93.79 -17.243,93.79 l -16.898,-32.32 c -77.5,302.08 86.25,356.83 86.25,356.83 0,0 -64.824,19.99 -63.039,83.74 0,0 89.289,-21.24 187.621,36.26 91.008,53.22 220.156,89.62 350.832,64.69 117.909,-22.5 140.839,-106.1 140.839,-106.1 0,0 117.1,-16.81 161.25,-142.91 47.5,-135.69 7.5,-266.94 7.5,-266.94 l -12.21,36.07 c 0,0 -2.59,-53.52 -32.81,-124.55 l -12.9,-36.25 -761.669,-16.67 -17.523,54.36"
       style="fill:#7b4b4b;fill-opacity:1;fill-rule:nonzero;stroke:none"
       id="path28"
       inkscape:connector-curvature="0" /><path
       d="m 429.379,1137.78 15.832,-49.11 23.117,0.51 -38.531,48.24 c -0.09,0.02 -0.277,0.24 -0.418,0.36 z m 827.921,359.23 c -44.15,126.1 -161.25,142.91 -161.25,142.91 0,0 -22.93,83.6 -140.839,106.1 -130.676,24.93 -259.824,-11.47 -350.832,-64.69 -98.332,-57.5 -187.621,-36.26 -187.621,-36.26 -1.785,-63.75 63.039,-83.74 63.039,-83.74 0,0 -163.75,-54.75 -86.25,-356.83 l 2.754,5.27 c -0.699,3.13 -1.262,6.15 -1.504,8.9 -23.75,270 124.086,341.7 124.086,341.7 0,0 15.597,49.39 113.933,106.89 91.008,53.22 210.059,79.79 341.575,59.72 129.439,-19.74 128.399,-126.18 128.399,-126.18 0,0 122.91,-23.84 167.65,-150.64 -3.35,15.43 -7.63,31.11 -13.14,46.85"
       style="fill:#c79485;fill-opacity:1;fill-rule:nonzero;stroke:none"
       id="path30"
       inkscape:connector-curvature="0" /><path
       d="m 514.797,922.645 c -106.25,-5 -153.75,141.595 -116.25,194.095 27.051,37.87 81.691,13.53 91.898,-7.24"
       style="fill:#fcd0b4;fill-opacity:1;fill-rule:nonzero;stroke:none"
       id="path32"
       inkscape:connector-curvature="0" /><path
       d="m 488.074,1050.41 c 10.031,-28.71 22.946,-71.152 3.309,-78.015 -19.641,-6.86 -43.684,10.847 -53.711,39.555 -10.031,28.7 -2.246,57.55 17.391,64.41 19.66,6.86 22.984,2.75 33.011,-25.95"
       style="fill:#de9284;fill-opacity:1;fill-rule:nonzero;stroke:none"
       id="path34"
       inkscape:connector-curvature="0" /><path
       d="m 1139.8,922.645 c 106.25,-5 153.75,141.595 116.25,194.095 -27.05,37.87 -81.7,13.53 -91.9,-7.24"
       style="fill:#fcd0b4;fill-opacity:1;fill-rule:nonzero;stroke:none"
       id="path36"
       inkscape:connector-curvature="0" /><path
       d="m 761.715,709.789 126.973,0 1.386,-48.187 c 0,0 -51.113,-47.512 -131.945,-25.43 l 2.394,24.238 1.192,49.379"
       style="fill:#de9284;fill-opacity:1;fill-rule:nonzero;stroke:none"
       id="path38"
       inkscape:connector-curvature="0" /><path
       d="M 624.234,1449.09 C 497.297,1417.58 491.047,1204.5 491.047,1204.5 c -2.895,-113.56 2.223,-308.77 71.25,-383.105 68.558,-73.825 135.004,-109.997 193.754,-127.497 0,0 72.5,-24.168 142.5,0 58.75,17.5 125.189,53.672 193.749,127.497 75.21,81.007 74.55,307.425 70.31,411.285 -1.25,30.76 -18.14,65.93 -25.53,74.71 -107.28,127.69 -106.99,206.63 -106.99,206.63 L 1015,1495.86 c -27.66,-27.64 -78.598,-55.15 -171.793,-68.85 0,0 33.332,113.33 60,133.33 0,0 -116.668,-148.33 -306.664,-183.33 0,0 5.98,25.72 21.488,59.29 l 6.203,12.79"
       style="fill:#fcd0b4;fill-opacity:1;fill-rule:nonzero;stroke:none"
       id="path40"
       inkscape:connector-curvature="0" /><path
       d="m 828.551,745.559 c -69.172,0 -129.172,165 -129.172,165 26.672,-12.5 85.832,-21.664 128.332,-21.664 l -0.832,0 c 42.5,0 101.672,9.164 128.332,21.664 0,0 -60,-165 -129.16,-165 l 2.5,0"
       style="fill:#ed5d84;fill-opacity:1;fill-rule:nonzero;stroke:none"
       id="path42"
       inkscape:connector-curvature="0" /><path
       d="m 731.586,1291.26 c -4.121,-3.47 -15.027,3.39 -30.742,12.96 -15.535,9.39 -37.196,21.27 -57.801,18.28 -20.73,-2.45 -38.539,-19.15 -49.148,-32.36 -11.047,-13.38 -15.2,-23.54 -20.356,-24 -2.531,-0.16 -5.359,3.16 -6.484,9.76 -1.121,6.53 -0.446,15.97 3.258,26.64 3.71,10.65 10.316,22.73 21.308,33.81 10.82,10.95 27.031,21.05 46.567,23.52 19.523,2.61 37.765,-3.06 50.851,-10.63 13.34,-7.62 22.754,-16.86 29.52,-25.12 13.398,-16.74 16.855,-29.7 13.027,-32.86"
       style="fill:#231f20;fill-opacity:1;fill-rule:nonzero;stroke:none"
       id="path44"
       inkscape:connector-curvature="0" /><path
       d="m 923.004,1291.26 c -3.828,3.16 -0.371,16.12 13.027,32.86 6.778,8.26 16.172,17.5 29.512,25.11 13.086,7.58 31.328,13.25 50.857,10.64 19.53,-2.47 35.74,-12.57 46.56,-23.52 11,-11.08 17.6,-23.16 21.31,-33.81 3.71,-10.67 4.38,-20.11 3.26,-26.64 -1.13,-6.6 -3.95,-9.92 -6.49,-9.76 -5.15,0.46 -9.3,10.62 -20.34,24 -10.61,13.21 -28.42,29.91 -49.15,32.36 -20.597,2.99 -42.277,-8.89 -57.804,-18.28 -15.715,-9.57 -26.621,-16.43 -30.742,-12.96"
       style="fill:#231f20;fill-opacity:1;fill-rule:nonzero;stroke:none"
       id="path46"
       inkscape:connector-curvature="0" /><path
       d="m 665.934,1019.12 c 0,-13.7 -30.844,-24.804 -68.887,-24.804 -38.043,0 -68.883,11.104 -68.883,24.804 0,13.69 30.84,24.79 68.883,24.79 38.043,0 68.887,-11.1 68.887,-24.79"
       style="fill:#f7939c;fill-opacity:1;fill-rule:nonzero;stroke:none"
       id="path48"
       inkscape:connector-curvature="0" /><path
       d="m 1132.83,1019.12 c 0,-13.7 -30.84,-24.804 -68.89,-24.804 -38.04,0 -68.877,11.104 -68.877,24.804 0,13.69 30.837,24.79 68.877,24.79 38.05,0 68.89,-11.1 68.89,-24.79"
       style="fill:#f7939c;fill-opacity:1;fill-rule:nonzero;stroke:none"
       id="path50"
       inkscape:connector-curvature="0" /><path
       d="m 1166.52,1050.41 c -10.04,-28.71 -22.95,-71.152 -3.31,-78.015 19.64,-6.86 43.68,10.847 53.71,39.555 10.03,28.7 2.25,57.55 -17.39,64.41 -19.66,6.86 -22.99,2.75 -33.01,-25.95"
       style="fill:#de9284;fill-opacity:1;fill-rule:nonzero;stroke:none"
       id="path52"
       inkscape:connector-curvature="0" /><path
       d="m 138.547,424.301 c 0,0 16.933,-47.949 79.375,-29.379 0,0 -16.25,-16.25 -35,-22.5 -18.75,-6.25 -31.875,0.629 -31.875,0.629 l -12.5,51.25"
       style="fill:#de9284;fill-opacity:1;fill-rule:nonzero;stroke:none"
       id="path54"
       inkscape:connector-curvature="0" /><path
       d="m 211.047,678.672 c 0,0 -12.5,-43.75 -38.75,-52.5 0,0 -22.055,-27.602 -62.457,-32.871 0,0 61.637,-26.313 68.512,-50.063 0,0 -11.418,72.024 37.695,90.434 l -5,45"
       style="fill:#de9284;fill-opacity:1;fill-rule:nonzero;stroke:none"
       id="path56"
       inkscape:connector-curvature="0" /><path
       d="m 767.77,1576.42 c 0,0 -117.04,-27.59 -165.055,-195.25 l 39.656,7.99 c 0,0 39.293,126.23 125.399,187.26"
       style="fill:#c79485;fill-opacity:1;fill-rule:nonzero;stroke:none"
       id="path58"
       inkscape:connector-curvature="0" /><path
       d="m 933.129,1574.09 c 0,0 -50.281,-10.45 -83.75,-143.75 l 32.922,5.42 c 0,0 11.25,93.33 50.828,138.33"
       style="fill:#c79485;fill-opacity:1;fill-rule:nonzero;stroke:none"
       id="path60"
       inkscape:connector-curvature="0" /><path
       d="m 310.684,287.93 c 0,0 128.714,217.172 145.363,231.371 42.5,36.25 198.754,105 268.754,117.5 l -12.676,-41.699 c 0,0 -201.359,-60.532 -239.41,-108.102 -39.785,-49.73 -155,-247.5 -155,-247.5 l -7.031,48.43"
       style="fill:#c6cbeb;fill-opacity:1;fill-rule:nonzero;stroke:none"
       id="path62"
       inkscape:connector-curvature="0" /><path
       d="m 932.711,630.332 c 0,0 238.329,-85.844 247.499,-90.844 5.17,-2.808 15.35,-13.566 26.99,-35.539 -0.21,0.84 -3.87,-21.679 -4.39,-21.808 -12.58,14.937 -28.4,29.039 -46.76,35.691 -29.74,10.758 -211.777,76.547 -211.777,76.547 l -11.562,35.953"
       style="fill:#c6cbeb;fill-opacity:1;fill-rule:nonzero;stroke:none"
       id="path64"
       inkscape:connector-curvature="0" /><path
       d="m 731.676,839.551 c 26.172,14.465 57.851,22.969 92.031,22.969 36.621,0 70.293,-9.832 97.469,-26.219 20.957,38.324 34.035,74.258 34.035,74.258 -26.574,-12.461 -85.449,-21.598 -127.91,-21.657 -42.473,0.059 -101.34,9.196 -127.922,21.657 0,0 12.363,-33.934 32.297,-71.008"
       style="fill:#d54851;fill-opacity:1;fill-rule:nonzero;stroke:none"
       id="path66"
       inkscape:connector-curvature="0" /><path
       d="m 806.859,482.141 -10.078,50.898 -58.086,-68.219 68.164,17.321"
       style="fill:#c2d0d6;fill-opacity:1;fill-rule:nonzero;stroke:none"
       id="path68"
       inkscape:connector-curvature="0" /><path
       d="m 848.395,482.141 10.078,50.898 58.086,-68.219 -68.164,17.321"
       style="fill:#c2d0d6;fill-opacity:1;fill-rule:nonzero;stroke:none"
       id="path70"
       inkscape:connector-curvature="0" /><path
       d="m 1046.54,1575.34 c 0,0 23.34,-115 -203.333,-148.33 0,0 33.332,113.33 60,133.33 0,0 -116.668,-148.33 -306.664,-183.33 0,0 33.328,143.33 146.664,195"
       style="fill:none;stroke:#231f20;stroke-width:14;stroke-linecap:round;stroke-linejoin:round;stroke-miterlimit:10;stroke-dasharray:none;stroke-opacity:1"
       id="path72"
       inkscape:connector-curvature="0" /><path
       d="m 821.879,1033.9 c 0,0 -42.5,-16.67 -38.328,-36.666 4.16,-20 19.16,-42.5 19.16,-42.5"
       style="fill:none;stroke:#231f20;stroke-width:14;stroke-linecap:round;stroke-linejoin:round;stroke-miterlimit:10;stroke-dasharray:none;stroke-opacity:1"
       id="path74"
       inkscape:connector-curvature="0" /><path
       d="m 801.051,1111.4 c 0,0 12.488,-56.67 9.16,-81.67"
       style="fill:none;stroke:#231f20;stroke-width:14;stroke-linecap:round;stroke-linejoin:round;stroke-miterlimit:10;stroke-dasharray:none;stroke-opacity:1"
       id="path76"
       inkscape:connector-curvature="0" /><path
       d="m 514.797,922.645 c -106.25,-5 -153.75,141.595 -116.25,194.095 27.051,37.87 81.691,13.53 91.898,-7.24"
       style="fill:none;stroke:#231f20;stroke-width:14;stroke-linecap:round;stroke-linejoin:round;stroke-miterlimit:10;stroke-dasharray:none;stroke-opacity:1"
       id="path78"
       inkscape:connector-curvature="0" /><path
       d="m 494.84,1043.91 c 0,0 -35.594,72.81 -75.922,38.67"
       style="fill:none;stroke:#231f20;stroke-width:14;stroke-linecap:round;stroke-linejoin:round;stroke-miterlimit:10;stroke-dasharray:none;stroke-opacity:1"
       id="path80"
       inkscape:connector-curvature="0" /><path
       d="m 1139.8,922.645 c 106.25,-5 153.75,141.595 116.25,194.095 -27.05,37.87 -81.7,13.53 -91.9,-7.24"
       style="fill:none;stroke:#231f20;stroke-width:14;stroke-linecap:round;stroke-linejoin:round;stroke-miterlimit:10;stroke-dasharray:none;stroke-opacity:1"
       id="path82"
       inkscape:connector-curvature="0" /><path
       d="m 1159.75,1043.91 c 0,0 35.6,72.81 75.93,38.67"
       style="fill:none;stroke:#231f20;stroke-width:14;stroke-linecap:round;stroke-linejoin:round;stroke-miterlimit:10;stroke-dasharray:none;stroke-opacity:1"
       id="path84"
       inkscape:connector-curvature="0" /><path
       d="m 1030.09,1514.02 c 0,0 -0.29,-78.94 106.99,-206.63 7.39,-8.78 24.28,-43.95 25.53,-74.71 4.24,-103.86 4.9,-330.278 -70.31,-411.285 -68.56,-73.825 -134.999,-109.997 -193.749,-127.497 -70,-24.168 -142.5,0 -142.5,0 -58.75,17.5 -125.196,53.672 -193.754,127.497 -69.027,74.335 -74.145,269.545 -71.25,383.105 0,0 6.25,213.08 133.187,244.59"
       style="fill:none;stroke:#231f20;stroke-width:14;stroke-linecap:round;stroke-linejoin:round;stroke-miterlimit:10;stroke-dasharray:none;stroke-opacity:1"
       id="path86"
       inkscape:connector-curvature="0" /><path
       d="m 748.551,1114.5 c -3.098,38.36 -27.512,100 -60.84,100 -30.313,0 -59.953,-43.44 -78.234,-106.49"
       style="fill:none;stroke:#231f20;stroke-width:18;stroke-linecap:round;stroke-linejoin:round;stroke-miterlimit:10;stroke-dasharray:none;stroke-opacity:1"
       id="path88"
       inkscape:connector-curvature="0" /><path
       d="m 613.629,1127 -27.391,7.5"
       style="fill:none;stroke:#231f20;stroke-width:14;stroke-linecap:round;stroke-linejoin:round;stroke-miterlimit:10;stroke-dasharray:none;stroke-opacity:1"
       id="path90"
       inkscape:connector-curvature="0" /><path
       d="m 906.051,1114.5 c 3.086,38.36 27.5,100 60.828,100 30.324,0 59.951,-43.44 78.231,-106.49"
       style="fill:none;stroke:#231f20;stroke-width:18;stroke-linecap:round;stroke-linejoin:round;stroke-miterlimit:10;stroke-dasharray:none;stroke-opacity:1"
       id="path92"
       inkscape:connector-curvature="0" /><path
       d="m 1040.96,1127 27.39,7.5"
       style="fill:none;stroke:#231f20;stroke-width:14;stroke-linecap:round;stroke-linejoin:round;stroke-miterlimit:10;stroke-dasharray:none;stroke-opacity:1"
       id="path94"
       inkscape:connector-curvature="0" /><path
       d="m 828.551,745.559 c -69.172,0 -129.172,165 -129.172,165 26.672,-12.5 85.832,-21.664 128.332,-21.664 l -0.832,0 c 42.5,0 101.672,9.164 128.332,21.664 0,0 -60,-165 -129.16,-165 l 2.5,0 z"
       style="fill:none;stroke:#231f20;stroke-width:14;stroke-linecap:round;stroke-linejoin:round;stroke-miterlimit:10;stroke-dasharray:none;stroke-opacity:1"
       id="path96"
       inkscape:connector-curvature="0" /><path
       d="m 419.453,1254.62 c -13.812,-27.66 -25.906,-50.12 -25.906,-50.12 -77.5,302.08 86.25,356.83 86.25,356.83 0,0 -64.824,19.99 -63.039,83.74 0,0 89.289,-21.24 187.621,36.26 91.008,53.22 220.156,89.62 350.832,64.69 117.909,-22.5 140.839,-106.1 140.839,-106.1 0,0 117.1,-16.81 161.25,-142.91 47.5,-135.69 7.5,-266.94 7.5,-266.94 0,0.01 -10.82,33.53 -24.28,69.47"
       style="fill:none;stroke:#231f20;stroke-width:14;stroke-linecap:round;stroke-linejoin:round;stroke-miterlimit:10;stroke-dasharray:none;stroke-opacity:1"
       id="path98"
       inkscape:connector-curvature="0" /><path
       d="m 410.445,1236.82 c 0,0 -4.007,-34.21 17.243,-93.79"
       style="fill:none;stroke:#231f20;stroke-width:14;stroke-linecap:round;stroke-linejoin:round;stroke-miterlimit:10;stroke-dasharray:none;stroke-opacity:1"
       id="path100"
       inkscape:connector-curvature="0" /><path
       d="m 1252.59,1266.14 c 0,0 -2.59,-53.52 -32.81,-124.55"
       style="fill:none;stroke:#231f20;stroke-width:14;stroke-linecap:round;stroke-linejoin:round;stroke-miterlimit:10;stroke-dasharray:none;stroke-opacity:1"
       id="path102"
       inkscape:connector-curvature="0" /><path
       d="m 731.586,1291.26 c -4.121,-3.47 -15.027,3.39 -30.742,12.96 -15.535,9.39 -37.196,21.27 -57.801,18.28 -20.73,-2.45 -38.539,-19.15 -49.148,-32.36 -11.047,-13.38 -15.2,-23.54 -20.356,-24 -2.531,-0.16 -5.359,3.16 -6.484,9.76 -1.121,6.53 -0.446,15.97 3.258,26.64 3.71,10.65 10.316,22.73 21.308,33.81 10.82,10.95 27.031,21.05 46.567,23.52 19.523,2.61 37.765,-3.06 50.851,-10.63 13.34,-7.62 22.754,-16.86 29.52,-25.12 13.398,-16.74 16.855,-29.7 13.027,-32.86"
       style="fill:#231f20;fill-opacity:1;fill-rule:nonzero;stroke:none"
       id="path104"
       inkscape:connector-curvature="0" /><path
       d="m 923.004,1291.26 c -3.828,3.16 -0.371,16.12 13.027,32.86 6.778,8.26 16.172,17.5 29.512,25.11 13.086,7.58 31.328,13.25 50.857,10.64 19.53,-2.47 35.74,-12.57 46.56,-23.52 11,-11.08 17.6,-23.16 21.31,-33.81 3.71,-10.67 4.38,-20.11 3.26,-26.64 -1.13,-6.6 -3.95,-9.92 -6.49,-9.76 -5.15,0.46 -9.3,10.62 -20.34,24 -10.61,13.21 -28.42,29.91 -49.15,32.36 -20.597,2.99 -42.277,-8.89 -57.804,-18.28 -15.715,-9.57 -26.621,-16.43 -30.742,-12.96"
       style="fill:#231f20;fill-opacity:1;fill-rule:nonzero;stroke:none"
       id="path106"
       inkscape:connector-curvature="0" /><path
       d="M 726.988,637.59 C 673.207,620.559 493.945,560.949 450.316,510.332 421.938,477.41 310.684,287.93 310.684,287.93"
       style="fill:none;stroke:#231f20;stroke-width:14;stroke-linecap:round;stroke-linejoin:round;stroke-miterlimit:10;stroke-dasharray:none;stroke-opacity:1"
       id="path108"
       inkscape:connector-curvature="0" /><path
       d="M 757.457,665.07 C 739.879,655.219 715.582,633.34 709.664,586.332 702.184,527.012 693.316,361.039 794.02,7"
       style="fill:none;stroke:#231f20;stroke-width:14;stroke-linecap:round;stroke-linejoin:round;stroke-miterlimit:10;stroke-dasharray:none;stroke-opacity:1"
       id="path110"
       inkscape:connector-curvature="0" /><path
       d="m 893.402,666.84 c 17.676,-8.86 44.836,-30.418 51.164,-80.508 C 952.047,527.012 960.914,361.039 860.191,7"
       style="fill:none;stroke:#231f20;stroke-width:14;stroke-linecap:round;stroke-linejoin:round;stroke-miterlimit:10;stroke-dasharray:none;stroke-opacity:1"
       id="path112"
       inkscape:connector-curvature="0" /><path
       d="m 705.484,631.512 -121.168,-88.821 48.914,-87.5 -76.25,-64.601 c 0,0 121.493,-259.36 207,-373.7189"
       style="fill:none;stroke:#231f20;stroke-width:12;stroke-linecap:round;stroke-linejoin:round;stroke-miterlimit:10;stroke-dasharray:none;stroke-opacity:1"
       id="path114"
       inkscape:connector-curvature="0" /><path
       d="m 891.656,691.891 c 0,0 0.809,-36.262 3.25,-53.36 0,0 -21.629,-47.199 -67.957,-60.949 -46.308,13.75 -69.746,60.539 -69.746,60.539 1.231,19.969 1.641,53.77 1.641,53.77"
       style="fill:none;stroke:#231f20;stroke-width:14;stroke-linecap:round;stroke-linejoin:round;stroke-miterlimit:10;stroke-dasharray:none;stroke-opacity:1"
       id="path116"
       inkscape:connector-curvature="0" /><path
       d="m 929.957,635.301 c 53.731,-21.391 213.323,-84.692 241.093,-92.719 56.25,-16.25 97.7,-183.383 97.7,-535.16012"
       style="fill:none;stroke:#231f20;stroke-width:14;stroke-linecap:round;stroke-linejoin:round;stroke-miterlimit:10;stroke-dasharray:none;stroke-opacity:1"
       id="path118"
       inkscape:connector-curvature="0" /><path
       d="m 954.918,625.012 119.162,-82.321 -48.91,-87.5 76.25,-64.601 c 0,0 -136.514,-275.391 -216.678,-377.9884"
       style="fill:none;stroke:#231f20;stroke-width:12;stroke-linecap:round;stroke-linejoin:round;stroke-miterlimit:10;stroke-dasharray:none;stroke-opacity:1"
       id="path120"
       inkscape:connector-curvature="0" /><path
       d="M 796.891,533.039 808.102,480.082 764.293,135.34"
       style="fill:none;stroke:#231f20;stroke-width:12;stroke-linecap:round;stroke-linejoin:round;stroke-miterlimit:10;stroke-dasharray:none;stroke-opacity:1"
       id="path122"
       inkscape:connector-curvature="0" /><path
       d="m 857.32,533.039 -11.191,-52.957 44.766,-341.41"
       style="fill:none;stroke:#231f20;stroke-width:12;stroke-linecap:round;stroke-linejoin:round;stroke-miterlimit:10;stroke-dasharray:none;stroke-opacity:1"
       id="path124"
       inkscape:connector-curvature="0" /><path
       d="M 471.879,416.211 538.547,7"
       style="fill:none;stroke:#231f20;stroke-width:12;stroke-linecap:round;stroke-linejoin:round;stroke-miterlimit:10;stroke-dasharray:none;stroke-opacity:1"
       id="path126"
       inkscape:connector-curvature="0" /><path
       d="M 1206.88,503.672 1121.05,7"
       style="fill:none;stroke:#231f20;stroke-width:12;stroke-linecap:round;stroke-linejoin:round;stroke-miterlimit:10;stroke-dasharray:none;stroke-opacity:1"
       id="path128"
       inkscape:connector-curvature="0" /><path
       d="m 1221.73,327.52 c 0,0 -18.3,-103.829 -73.86,-155.641"
       style="fill:none;stroke:#231f20;stroke-width:10;stroke-linecap:round;stroke-linejoin:round;stroke-miterlimit:10;stroke-dasharray:none;stroke-opacity:1"
       id="path130"
       inkscape:connector-curvature="0" /><path
       d="M 944.566,586.332 C 940.25,525.082 917.75,458.199 917.75,458.199 L 827.105,577.582 736.48,458.199 c 0,0 -22.5,66.883 -26.816,128.133"
       style="fill:none;stroke:#231f20;stroke-width:12;stroke-linecap:round;stroke-linejoin:round;stroke-miterlimit:10;stroke-dasharray:none;stroke-opacity:1"
       id="path132"
       inkscape:connector-curvature="0" /><path
       d="m 147.484,377.852 c -8.851,37.418 -21.8,84.269 -34.453,101.308 -22.324,30.09 -142.0779,143.281 -95.2771,197.531 39.0469,45.239 133.6561,38.579 143.1091,13.391 9.149,-24.383 11.563,-77.57 -16.211,-87.141 -27.777,-9.57 -62.6168,-15.203 -57.3004,8.969 5.2656,24.16 38.6174,35.34 38.6174,35.34"
       style="fill:none;stroke:#231f20;stroke-width:14;stroke-linecap:round;stroke-linejoin:round;stroke-miterlimit:10;stroke-dasharray:none;stroke-opacity:1"
       id="path134"
       inkscape:connector-curvature="0" /><path
       d="m 19.1094,678.18 c 0,0 1.1836,40.179 35.8672,53.539 34.6757,13.351 99.9064,19.48 121.8204,0 16,-14.278 45.316,-81.309 -8.402,-108.789"
       style="fill:none;stroke:#231f20;stroke-width:14;stroke-linecap:round;stroke-linejoin:round;stroke-miterlimit:10;stroke-dasharray:none;stroke-opacity:1"
       id="path136"
       inkscape:connector-curvature="0" /><path
       d="m 219.629,612.289 c 0,0 -14.883,71.922 6.949,107.32 21.785,35.391 49.75,40.762 46.637,13.161 -3.125,-27.571 -9.121,-78.508 -3.996,-105.79 5.14,-27.242 3.941,-97.699 -54.043,-131.019"
       style="fill:none;stroke:#231f20;stroke-width:14;stroke-linecap:round;stroke-linejoin:round;stroke-miterlimit:10;stroke-dasharray:none;stroke-opacity:1"
       id="path138"
       inkscape:connector-curvature="0" /><path
       d="m 215.453,638.91 c 0,0 -49.129,-31.57 -35.234,-97.219"
       style="fill:none;stroke:#231f20;stroke-width:14;stroke-linecap:round;stroke-linejoin:round;stroke-miterlimit:10;stroke-dasharray:none;stroke-opacity:1"
       id="path140"
       inkscape:connector-curvature="0" /><path
       d="m 46.0117,727.172 c 0,0 30.5352,46.258 82.4413,51.168 51.879,4.902 99.11,-20.199 89.137,-83"
       style="fill:none;stroke:#231f20;stroke-width:14;stroke-linecap:round;stroke-linejoin:round;stroke-miterlimit:10;stroke-dasharray:none;stroke-opacity:1"
       id="path142"
       inkscape:connector-curvature="0" /><path
       d="m 84.5898,763.242 c 0,0 -43.8281,128.821 -64.5898,172.481 -20.78125,43.707 3.4336,68.597 26.6641,53.375 23.207,-15.266 44.5117,-37.653 57.2659,-92.047 12.765,-54.414 20.976,-118.672 20.976,-118.672"
       style="fill:none;stroke:#231f20;stroke-width:14;stroke-linecap:round;stroke-linejoin:round;stroke-miterlimit:10;stroke-dasharray:none;stroke-opacity:1"
       id="path144"
       inkscape:connector-curvature="0" /><path
       d="m 227.336,504.141 c 0,0 4.898,-45.219 15.453,-81.25"
       style="fill:none;stroke:#231f20;stroke-width:14;stroke-linecap:round;stroke-linejoin:round;stroke-miterlimit:10;stroke-dasharray:none;stroke-opacity:1"
       id="path146"
       inkscape:connector-curvature="0" /><path
       d="m 264.125,434.672 c 10.699,0.887 25.215,-0.082 26.793,-14.184 2.539,-22.988 22.629,-174.156 35.129,-234.156"
       style="fill:none;stroke:#231f20;stroke-width:14;stroke-linecap:round;stroke-linejoin:round;stroke-miterlimit:10;stroke-dasharray:none;stroke-opacity:1"
       id="path148"
       inkscape:connector-curvature="0" /><path
       d="m 142.027,399.898 c 0,0 -14.316,-13.148 -13.48,-20.488 0.832,-7.328 15.812,-61.359 15.812,-61.359 56.555,-11.02 129.094,43.711 128.957,71.84 l -12.332,57.289 c 0,0 -9.328,11.019 -23.015,5.941"
       style="fill:none;stroke:#231f20;stroke-width:14;stroke-linecap:round;stroke-linejoin:round;stroke-miterlimit:10;stroke-dasharray:none;stroke-opacity:1"
       id="path150"
       inkscape:connector-curvature="0" /><path
       d="m 132.188,363.352 c -9.141,-14.473 -13.86,-31.762 -9.485,-45.622 8.344,-26.398 40.594,-173.8 57.094,-218.898 18.75,-51.25 35.656,-71.7812 88.68,-61.3711 68.171,13.3907 231.945,196.2111 231.945,196.2111"
       style="fill:none;stroke:#231f20;stroke-width:14;stroke-linecap:round;stroke-linejoin:round;stroke-miterlimit:10;stroke-dasharray:none;stroke-opacity:1"
       id="path152"
       inkscape:connector-curvature="0" /><path
       d="m 143.609,371.891 c 0,0 5.258,-5.95 28.379,-0.641 45.524,10.461 75.207,44.961 75.184,60.578"
       style="fill:none;stroke:#231f20;stroke-width:14;stroke-linecap:round;stroke-linejoin:round;stroke-miterlimit:10;stroke-dasharray:none;stroke-opacity:1"
       id="path154"
       inkscape:connector-curvature="0" /></g></svg>