<?xml version="1.0" encoding="UTF-8" standalone="no"?>
<!-- Created with Inkscape (http://www.inkscape.org/) -->

<svg
   xmlns:dc="http://purl.org/dc/elements/1.1/"
   xmlns:cc="http://creativecommons.org/ns#"
   xmlns:rdf="http://www.w3.org/1999/02/22-rdf-syntax-ns#"
   xmlns:svg="http://www.w3.org/2000/svg"
   xmlns="http://www.w3.org/2000/svg"
   xmlns:sodipodi="http://sodipodi.sourceforge.net/DTD/sodipodi-0.dtd"
   xmlns:inkscape="http://www.inkscape.org/namespaces/inkscape"
   id="svg2"
   version="1.1"
   inkscape:version="0.91 r13725"
   xml:space="preserve"
   width="605.74762"
   height="810"
   viewBox="0 0 605.74763 810"
   sodipodi:docname="publicdomainq-business-man-advice_2.svg"
   inkscape:export-filename="/media/sdb1/_GRAFIKA/Publicdomainq/lidi/publicdomainq-business-man-advice_2.png"
   inkscape:export-xdpi="90.024696"
   inkscape:export-ydpi="90.024696"><title
     id="title7771">Business man - advice - version 2</title><metadata
     id="metadata8"><rdf:RDF><cc:Work
         rdf:about=""><dc:format>image/svg+xml</dc:format><dc:type
           rdf:resource="http://purl.org/dc/dcmitype/StillImage" /><dc:title>Business man - advice - version 2</dc:title><cc:license
           rdf:resource="http://creativecommons.org/publicdomain/zero/1.0/" /><dc:subject><rdf:Bag><rdf:li>man</rdf:li><rdf:li>male</rdf:li><rdf:li>advice</rdf:li><rdf:li>work</rdf:li><rdf:li>office</rdf:li><rdf:li>show</rdf:li><rdf:li>explain</rdf:li><rdf:li>suit</rdf:li><rdf:li>tie</rdf:li><rdf:li>publicdomainq.net</rdf:li></rdf:Bag></dc:subject><dc:description>This image was adapted from a picture posted to publicdomainq.net. All of the images on these sites are in the public domain i.e. CC0. This site is only in Japanese but can be easily navigated with Google Translate.</dc:description></cc:Work><cc:License
         rdf:about="http://creativecommons.org/publicdomain/zero/1.0/"><cc:permits
           rdf:resource="http://creativecommons.org/ns#Reproduction" /><cc:permits
           rdf:resource="http://creativecommons.org/ns#Distribution" /><cc:permits
           rdf:resource="http://creativecommons.org/ns#DerivativeWorks" /></cc:License></rdf:RDF></metadata><defs
     id="defs6" /><sodipodi:namedview
     pagecolor="#ffffff"
     bordercolor="#666666"
     borderopacity="1"
     objecttolerance="10"
     gridtolerance="10"
     guidetolerance="10"
     inkscape:pageopacity="0"
     inkscape:pageshadow="2"
     inkscape:window-width="1920"
     inkscape:window-height="1125"
     id="namedview4"
     showgrid="false"
     inkscape:zoom="0.75642628"
     inkscape:cx="87.134471"
     inkscape:cy="432.57573"
     inkscape:window-x="0"
     inkscape:window-y="0"
     inkscape:window-maximized="1"
     inkscape:current-layer="svg2"
     fit-margin-top="5"
     fit-margin-left="5"
     fit-margin-bottom="5"
     fit-margin-right="5" /><g
     id="g12"
     transform="matrix(0.4533325,0,0,-0.4533325,4.9665734,804.96163)"><path
       d="m 743.711,617.84 c 0,0 -205.203,-72.168 -246.211,-92.668 -60,-30 -188.75,-260 -188.75,-260 L 270,433.922 c 0,0 -20,-1.25 -31.25,-3.75 -11.25,-2.5 -50,-18.75 -75,-32.5 -25,-13.75 -41.25,-47.5 -41.25,-47.5 0,0 52.5,-257.5001 66.25,-296.2501 13.75,-38.75 46.25,-42.5 72.5,-42.5 26.25,0 98.75,62.5 98.75,62.5 l 158.75,148.7501 37.5,-213.34387 739.17,0 c 0,351.77387 -41.46,520.56287 -97.71,536.81287 -26.25,7.578 -172.69,51.89 -234.878,70.73 -2.441,-0.16 -10.312,33.609 -10.312,33.609 0,0 -7.879,25.329 -89.493,27.02 -101.855,2.109 -102.988,-24.211 -102.988,-24.211 L 743.711,617.84"
       style="fill:#ffffff;fill-opacity:1;fill-rule:nonzero;stroke:none"
       id="path14"
       inkscape:connector-curvature="0" /><path
       d="m 85.6719,741.391 c 0,0 -43.8281,128.816 -64.586,172.476 C 0.300781,957.57 24.5156,982.473 47.75,967.238 70.957,951.984 92.2617,929.59 105.016,875.195 117.777,820.781 125.992,756.52 125.992,756.52 L 85.6719,741.391"
       style="fill:#fcd0b4;fill-opacity:1;fill-rule:nonzero;stroke:none"
       id="path16"
       inkscape:connector-curvature="0" /><path
       d="m 228.418,482.289 c 0,0 4.902,-45.23 15.453,-81.25 l 0.926,-2.41 c -9.07,-17.149 -35.344,-40.879 -71.727,-49.231 -10.699,-2.468 -17.574,-2.5 -21.871,-1.839 L 148.57,356 c -8.851,37.422 -21.8,84.262 -34.453,101.309 C 92.3789,486.602 -21.7148,594.68 15.4766,650.422 l 4.7187,5.906 c 0,0 0.8164,27.594 20.8203,44.652 l 6.0782,4.329 c 0,0 30.539,46.261 82.4412,51.171 51.879,4.911 99.113,-20.191 89.137,-82.992 l 8.988,24.262 c 21.789,35.398 49.75,40.77 46.637,13.172 -3.125,-27.582 -9.121,-78.524 -3.992,-105.793 5.14,-27.25 3.937,-97.707 -54.043,-131.027"
       style="fill:#fcd0b4;fill-opacity:1;fill-rule:nonzero;stroke:none"
       id="path18"
       inkscape:connector-curvature="0" /><path
       d="m 212.129,656.82 c 0,0 -12.5,-43.75 -38.75,-52.5 0,0 -22.051,-27.601 -62.457,-32.871 0,0 61.637,-26.308 68.512,-50.058 0,0 -11.414,72.019 37.695,90.429 l -5,45"
       style="fill:#de9284;fill-opacity:1;fill-rule:nonzero;stroke:none"
       id="path20"
       inkscape:connector-curvature="0" /><path
       d="m 919.707,630.57 c 0.098,18.918 -2.258,63.989 -2.258,63.989 l -131.238,0 c 0,0 -1.106,-47.571 -0.703,-60.661 0,0 16.172,-59.398 69.648,-59.398 53.457,0 64.551,56.07 64.551,56.07"
       style="fill:#fcd0b4;fill-opacity:1;fill-rule:nonzero;stroke:none"
       id="path22"
       inkscape:connector-curvature="0" /><path
       d="m 454.355,1146.59 c -21.25,59.59 -17.238,93.79 -17.238,93.79 l -16.902,-32.31 c -77.5,302.08 86.25,356.82 86.25,356.82 0,0 -64.824,20 -63.035,83.75 0,0 89.285,-21.25 187.617,36.25 91.016,53.23 220.152,89.63 350.84,64.69 117.903,-22.5 140.823,-106.09 140.823,-106.09 0,0 117.1,-16.81 161.25,-142.91 47.5,-135.69 7.5,-266.94 7.5,-266.94 l -12.19,36.06 c 0,0 -2.61,-53.52 -32.82,-124.55 l -12.91,-36.25 -761.653,-16.66 -17.532,54.35"
       style="fill:#7b4b4b;fill-opacity:1;fill-rule:nonzero;stroke:none"
       id="path24"
       inkscape:connector-curvature="0" /><path
       d="m 456.047,1141.35 15.84,-49.11 23.113,0.51 -38.535,48.24 c -0.086,0.02 -0.274,0.23 -0.418,0.36 z m 827.913,359.23 c -44.15,126.1 -161.25,142.91 -161.25,142.91 0,0 -22.92,83.59 -140.823,106.09 -130.688,24.94 -259.824,-11.46 -350.84,-64.69 -98.332,-57.5 -187.617,-36.25 -187.617,-36.25 -1.789,-63.75 63.035,-83.75 63.035,-83.75 0,0 -163.75,-54.74 -86.25,-356.82 l 2.754,5.27 c -0.696,3.12 -1.258,6.14 -1.504,8.9 -23.75,270 124.094,341.7 124.094,341.7 0,0 15.593,49.39 113.921,106.89 91.016,53.21 210.063,79.79 341.58,59.72 129.44,-19.75 128.39,-126.18 128.39,-126.18 0,0 122.92,-23.84 167.67,-150.65 -3.36,15.43 -7.64,31.12 -13.16,46.86"
       style="fill:#c79485;fill-opacity:1;fill-rule:nonzero;stroke:none"
       id="path26"
       inkscape:connector-curvature="0" /><path
       d="m 541.465,926.211 c -106.25,-5 -153.75,141.589 -116.25,194.089 27.051,37.88 81.687,13.53 91.902,-7.23"
       style="fill:#fcd0b4;fill-opacity:1;fill-rule:nonzero;stroke:none"
       id="path28"
       inkscape:connector-curvature="0" /><path
       d="m 514.746,1053.98 c 10.027,-28.71 22.942,-71.156 3.313,-78.023 -19.653,-6.855 -43.696,10.852 -53.711,39.563 -10.039,28.7 -2.246,57.55 17.382,64.4 19.665,6.87 22.989,2.75 33.016,-25.94"
       style="fill:#de9284;fill-opacity:1;fill-rule:nonzero;stroke:none"
       id="path30"
       inkscape:connector-curvature="0" /><path
       d="m 1166.46,926.211 c 106.25,-5 153.75,141.589 116.25,194.089 -27.05,37.88 -81.68,13.53 -91.9,-7.23"
       style="fill:#fcd0b4;fill-opacity:1;fill-rule:nonzero;stroke:none"
       id="path32"
       inkscape:connector-curvature="0" /><path
       d="m 788.391,713.352 126.968,0 1.379,-64.18 c 0,0 -68.191,-57.063 -131.941,-22.902 l 2.398,37.71 1.196,49.372"
       style="fill:#de9284;fill-opacity:1;fill-rule:nonzero;stroke:none"
       id="path34"
       inkscape:connector-curvature="0" /><path
       d="m 650.906,1452.65 c -126.941,-31.51 -133.191,-244.58 -133.191,-244.58 -2.891,-113.57 2.226,-308.773 71.25,-383.109 68.562,-73.832 135,-110 193.75,-127.5 0,0 72.5,-24.172 142.5,0 58.75,17.5 125.185,53.668 193.745,127.5 75.23,81.008 74.57,307.429 70.33,411.279 -1.25,30.76 -18.16,65.94 -25.53,74.71 -107.3,127.69 -106.99,206.63 -106.99,206.63 l -15.1,-18.15 c -27.67,-27.64 -78.604,-55.15 -171.799,-68.85 0,0 33.344,113.32 60,133.32 0,0 -116.656,-148.32 -306.656,-183.32 0,0 5.973,25.71 21.48,59.28 l 6.211,12.79"
       style="fill:#fcd0b4;fill-opacity:1;fill-rule:nonzero;stroke:none"
       id="path36"
       inkscape:connector-curvature="0" /><path
       d="m 758.254,1294.82 c -4.121,-3.46 -15.024,3.39 -30.742,12.97 -15.532,9.39 -37.199,21.26 -57.793,18.28 -20.735,-2.46 -38.547,-19.16 -49.153,-32.36 -11.046,-13.39 -15.207,-23.54 -20.363,-24.01 -2.527,-0.15 -5.348,3.16 -6.48,9.76 -1.118,6.53 -0.442,15.98 3.257,26.65 3.711,10.64 10.317,22.72 21.313,33.8 10.816,10.96 27.027,21.06 46.562,23.52 19.532,2.62 37.774,-3.06 50.86,-10.63 13.34,-7.61 22.742,-16.86 29.512,-25.11 13.394,-16.75 16.851,-29.71 13.027,-32.87"
       style="fill:#231f20;fill-opacity:1;fill-rule:nonzero;stroke:none"
       id="path38"
       inkscape:connector-curvature="0" /><path
       d="m 949.68,1294.82 c -3.828,3.16 -0.371,16.12 13.023,32.87 6.77,8.25 16.176,17.5 29.516,25.11 13.081,7.57 31.321,13.25 50.861,10.63 19.53,-2.46 35.74,-12.56 46.56,-23.52 10.99,-11.08 17.6,-23.16 21.31,-33.8 3.7,-10.67 4.37,-20.12 3.25,-26.65 -1.12,-6.6 -3.96,-9.91 -6.49,-9.76 -5.15,0.47 -9.3,10.62 -20.35,24.01 -10.6,13.2 -28.41,29.9 -49.15,32.36 -20.59,2.98 -42.265,-8.89 -57.788,-18.28 -15.727,-9.58 -26.621,-16.43 -30.742,-12.97"
       style="fill:#231f20;fill-opacity:1;fill-rule:nonzero;stroke:none"
       id="path40"
       inkscape:connector-curvature="0" /><path
       d="m 692.598,1022.69 c 0,-13.71 -30.84,-24.807 -68.875,-24.807 -38.047,0 -68.887,11.097 -68.887,24.807 0,13.69 30.84,24.78 68.887,24.78 38.035,0 68.875,-11.09 68.875,-24.78"
       style="fill:#f7939c;fill-opacity:1;fill-rule:nonzero;stroke:none"
       id="path42"
       inkscape:connector-curvature="0" /><path
       d="m 1159.5,1022.69 c 0,-13.71 -30.84,-24.807 -68.88,-24.807 -38.05,0 -68.89,11.097 -68.89,24.807 0,13.69 30.84,24.78 68.89,24.78 38.04,0 68.88,-11.09 68.88,-24.78"
       style="fill:#f7939c;fill-opacity:1;fill-rule:nonzero;stroke:none"
       id="path44"
       inkscape:connector-curvature="0" /><path
       d="m 1193.18,1053.98 c -10.03,-28.71 -22.94,-71.156 -3.31,-78.023 19.65,-6.855 43.69,10.852 53.71,39.563 10.04,28.7 2.25,57.55 -17.38,64.4 -19.67,6.87 -22.99,2.75 -33.02,-25.94"
       style="fill:#de9284;fill-opacity:1;fill-rule:nonzero;stroke:none"
       id="path46"
       inkscape:connector-curvature="0" /><path
       d="m 794.441,1579.98 c 0,0 -117.039,-27.59 -165.054,-195.24 l 39.656,7.99 c 0,0 39.285,126.23 125.398,187.25"
       style="fill:#c79485;fill-opacity:1;fill-rule:nonzero;stroke:none"
       id="path48"
       inkscape:connector-curvature="0" /><path
       d="m 959.797,1577.65 c 0,0 -50.285,-10.45 -83.75,-143.75 l 32.918,5.43 c 0,0 11.25,93.32 50.832,138.32"
       style="fill:#c79485;fill-opacity:1;fill-rule:nonzero;stroke:none"
       id="path50"
       inkscape:connector-curvature="0" /><path
       d="m 773.75,448.078 50,76.25 61.27,4.512 46.23,-69.512 c 0,0 -101.25,37.5 -157.5,-11.25"
       style="fill:#7fafd6;fill-opacity:1;fill-rule:nonzero;stroke:none"
       id="path52"
       inkscape:connector-curvature="0" /><path
       d="m 773.301,9.32813 65.859,466.55087 -14.57,52.961 28.32,39.66 7.5,0 24.61,-39.66 -18.997,-52.961 71.25,-466.55087"
       style="fill:#51ade5;fill-opacity:1;fill-rule:nonzero;stroke:none"
       id="path54"
       inkscape:connector-curvature="0" /><path
       d="m 919.348,687.699 c 0,0 0.808,-36.258 3.25,-53.371 0,0 -21.629,-47.199 -67.95,-60.949 -46.32,13.75 -69.746,60.543 -69.746,60.543 1.219,19.969 1.629,53.777 1.629,53.777"
       style="fill:none;stroke:#231f20;stroke-width:14;stroke-linecap:round;stroke-linejoin:round;stroke-miterlimit:10;stroke-dasharray:none;stroke-opacity:1"
       id="path56"
       inkscape:connector-curvature="0" /><path
       d="M 937.273,9.32813 866.023,475.879 885.02,528.84"
       style="fill:none;stroke:#231f20;stroke-width:12;stroke-linecap:round;stroke-linejoin:round;stroke-miterlimit:10;stroke-dasharray:none;stroke-opacity:1"
       id="path58"
       inkscape:connector-curvature="0" /><path
       d="M 824.59,528.84 839.16,475.879 773.301,6"
       style="fill:none;stroke:#231f20;stroke-width:12;stroke-linecap:round;stroke-linejoin:round;stroke-miterlimit:10;stroke-dasharray:none;stroke-opacity:1"
       id="path60"
       inkscape:connector-curvature="0" /><path
       d="M 854.805,573.379 771.836,449.738 c 0,0 -23.75,32.371 -31.348,112.071 -1.894,19.941 -0.078,49.14 9.5,75.031 9.504,25.64 30.278,32.531 36.086,34.191"
       style="fill:none;stroke:#231f20;stroke-width:12;stroke-linecap:round;stroke-linejoin:round;stroke-miterlimit:10;stroke-dasharray:none;stroke-opacity:1"
       id="path62"
       inkscape:connector-curvature="0" /><path
       d="m 854.805,573.379 82.968,-123.641 c 0,0 23.75,32.371 31.348,112.071 1.895,19.941 0.078,49.14 -9.504,75.031 -9.5,25.64 -30.269,32.531 -36.082,34.191"
       style="fill:none;stroke:#231f20;stroke-width:12;stroke-linecap:round;stroke-linejoin:round;stroke-miterlimit:10;stroke-dasharray:none;stroke-opacity:1"
       id="path64"
       inkscape:connector-curvature="0" /><path
       d="M 738.594,615.941 C 655.969,594.09 486.516,530.762 450.316,488.762 421.938,455.852 310.684,266.359 310.684,266.359"
       style="fill:none;stroke:#231f20;stroke-width:14;stroke-linecap:round;stroke-linejoin:round;stroke-miterlimit:10;stroke-dasharray:none;stroke-opacity:1"
       id="path66"
       inkscape:connector-curvature="0" /><path
       d="m 150.422,344.328 c 2.234,-12.406 -13.863,81.582 -37.391,113.262 -22.324,30.101 -142.0779,143.281 -95.2771,197.539 39.0469,45.23 133.6561,38.57 143.1091,13.383 9.149,-24.383 11.563,-77.563 -16.211,-87.133 -27.777,-9.57 -62.6168,-15.199 -57.3004,8.961 5.2656,24.16 38.6174,35.332 38.6174,35.332 l -46.4104,-6.481"
       style="fill:none;stroke:#231f20;stroke-width:14;stroke-linecap:round;stroke-linejoin:round;stroke-miterlimit:10;stroke-dasharray:none;stroke-opacity:1"
       id="path68"
       inkscape:connector-curvature="0" /><path
       d="m 19.1094,656.609 c 0,0 1.1836,40.18 35.8672,53.539 34.6757,13.364 99.9064,19.493 121.8204,0 16,-14.277 45.316,-81.308 -8.402,-108.789"
       style="fill:none;stroke:#231f20;stroke-width:14;stroke-linecap:round;stroke-linejoin:round;stroke-miterlimit:10;stroke-dasharray:none;stroke-opacity:1"
       id="path70"
       inkscape:connector-curvature="0" /><path
       d="m 219.629,590.711 c 0,0 -14.883,71.937 6.949,107.328 21.785,35.391 49.75,40.762 46.637,13.16 -3.125,-27.578 -9.121,-78.508 -3.996,-105.777 5.14,-27.25 3.941,-97.711 -54.043,-131.031"
       style="fill:none;stroke:#231f20;stroke-width:14;stroke-linecap:round;stroke-linejoin:round;stroke-miterlimit:10;stroke-dasharray:none;stroke-opacity:1"
       id="path72"
       inkscape:connector-curvature="0" /><path
       d="m 215.453,617.328 c 0,0 -49.129,-31.558 -35.234,-97.199"
       style="fill:none;stroke:#231f20;stroke-width:14;stroke-linecap:round;stroke-linejoin:round;stroke-miterlimit:10;stroke-dasharray:none;stroke-opacity:1"
       id="path74"
       inkscape:connector-curvature="0" /><path
       d="m 46.0117,705.602 c 0,0 30.5352,46.269 82.4413,51.168 51.879,4.902 99.11,-20.2 89.137,-82.989"
       style="fill:none;stroke:#231f20;stroke-width:14;stroke-linecap:round;stroke-linejoin:round;stroke-miterlimit:10;stroke-dasharray:none;stroke-opacity:1"
       id="path76"
       inkscape:connector-curvature="0" /><path
       d="m 84.5898,741.672 c 0,0 -43.8281,128.828 -64.5898,172.48 -20.78125,43.711 3.4336,68.614 26.6641,53.379 23.207,-15.265 44.5117,-37.656 57.2659,-92.051 12.765,-54.414 20.976,-118.671 20.976,-118.671"
       style="fill:none;stroke:#231f20;stroke-width:14;stroke-linecap:round;stroke-linejoin:round;stroke-miterlimit:10;stroke-dasharray:none;stroke-opacity:1"
       id="path78"
       inkscape:connector-curvature="0" /><path
       d="m 227.336,482.57 c 0,0 4.898,-45.218 15.453,-81.25"
       style="fill:none;stroke:#231f20;stroke-width:14;stroke-linecap:round;stroke-linejoin:round;stroke-miterlimit:10;stroke-dasharray:none;stroke-opacity:1"
       id="path80"
       inkscape:connector-curvature="0" /><path
       d="m 237.969,431.551 c 13.687,5.078 31.656,2.699 31.656,2.699 0,0 43.922,-209.488 56.422,-269.488"
       style="fill:none;stroke:#231f20;stroke-width:14;stroke-linecap:round;stroke-linejoin:round;stroke-miterlimit:10;stroke-dasharray:none;stroke-opacity:1"
       id="path82"
       inkscape:connector-curvature="0" /><path
       d="m 142.027,378.328 c 0,0 -23.609,-22.437 -22.773,-29.769 0.836,-7.34 44.043,-226.207 60.543,-271.2973 18.75,-51.25 35.656,-71.78123 88.68,-61.3711 C 336.648,29.2891 518.75,227.672 518.75,227.672"
       style="fill:none;stroke:#231f20;stroke-width:14;stroke-linecap:round;stroke-linejoin:round;stroke-miterlimit:10;stroke-dasharray:none;stroke-opacity:1"
       id="path84"
       inkscape:connector-curvature="0" /><path
       d="m 131.25,344.328 c 0,0 15.398,-5.238 38.336,0.844 56.664,15 90.859,56.047 90.836,71.656"
       style="fill:none;stroke:#231f20;stroke-width:14;stroke-linecap:round;stroke-linejoin:round;stroke-miterlimit:10;stroke-dasharray:none;stroke-opacity:1"
       id="path86"
       inkscape:connector-curvature="0" /><path
       d="m 758.086,1146.18 c 0,-45.45 -28.242,-82.29 -63.074,-82.29 -34.844,0 -63.11,36.84 -63.11,82.29 0,45.45 28.266,82.29 63.11,82.29 34.832,0 63.074,-36.84 63.074,-82.29"
       style="fill:#ffffff;fill-opacity:1;fill-rule:nonzero;stroke:none"
       id="path88"
       inkscape:connector-curvature="0" /><path
       d="m 748.254,1134.3 c 0,-30.96 -17.426,-56.06 -38.899,-56.06 -21.484,0 -38.894,25.1 -38.894,56.06 0,30.97 17.41,56.06 38.894,56.06 21.473,0 38.899,-25.09 38.899,-56.06"
       style="fill:#231f20;fill-opacity:1;fill-rule:nonzero;stroke:none"
       id="path90"
       inkscape:connector-curvature="0" /><path
       d="m 747.566,1153.07 c 0,-6.34 -5.132,-11.49 -11.48,-11.49 -6.352,0 -11.508,5.15 -11.508,11.49 0,6.34 5.156,11.49 11.508,11.49 6.348,0 11.48,-5.15 11.48,-11.49"
       style="fill:#ffffff;fill-opacity:1;fill-rule:nonzero;stroke:none"
       id="path92"
       inkscape:connector-curvature="0" /><path
       d="m 701.191,1201.11 c 15.957,0 31.172,-2.9 45.215,-7.99 -12.617,18.38 -30.898,30.02 -51.289,30.02 -23.047,0 -43.379,-14.81 -55.898,-37.44 18.261,9.74 39.394,15.41 61.972,15.41"
       style="fill:#d8e5f6;fill-opacity:1;fill-rule:nonzero;stroke:none"
       id="path94"
       inkscape:connector-curvature="0" /><path
       d="m 751.184,1193.88 c -24.243,51.13 -119.36,55.62 -122.981,-45.18"
       style="fill:none;stroke:#231f20;stroke-width:16;stroke-linecap:round;stroke-linejoin:round;stroke-miterlimit:10;stroke-dasharray:none;stroke-opacity:1"
       id="path96"
       inkscape:connector-curvature="0" /><path
       d="m 947.766,1146.18 c 0,-45.45 28.242,-82.29 63.074,-82.29 34.84,0 63.11,36.84 63.11,82.29 0,45.45 -28.27,82.29 -63.11,82.29 -34.832,0 -63.074,-36.84 -63.074,-82.29"
       style="fill:#ffffff;fill-opacity:1;fill-rule:nonzero;stroke:none"
       id="path98"
       inkscape:connector-curvature="0" /><path
       d="m 957.598,1134.3 c 0,-30.96 17.422,-56.06 38.894,-56.06 21.488,0 38.898,25.1 38.898,56.06 0,30.97 -17.41,56.06 -38.898,56.06 -21.472,0 -38.894,-25.09 -38.894,-56.06"
       style="fill:#231f20;fill-opacity:1;fill-rule:nonzero;stroke:none"
       id="path100"
       inkscape:connector-curvature="0" /><path
       d="m 1011.61,1153.07 c 0,-6.34 5.14,-11.49 11.49,-11.49 6.34,0 11.5,5.15 11.5,11.49 0,6.34 -5.16,11.49 -11.5,11.49 -6.35,0 -11.49,-5.15 -11.49,-11.49"
       style="fill:#ffffff;fill-opacity:1;fill-rule:nonzero;stroke:none"
       id="path102"
       inkscape:connector-curvature="0" /><path
       d="m 1003.83,1201.11 c -15.959,0 -31.174,-2.9 -45.217,-7.99 12.617,18.38 30.899,30.02 51.287,30.02 23.05,0 43.38,-14.81 55.9,-37.44 -18.26,9.74 -39.39,15.41 -61.97,15.41"
       style="fill:#d8e5f6;fill-opacity:1;fill-rule:nonzero;stroke:none"
       id="path104"
       inkscape:connector-curvature="0" /><path
       d="m 954.668,1193.88 c 24.238,51.13 119.352,55.62 122.982,-45.18"
       style="fill:none;stroke:#231f20;stroke-width:16;stroke-linecap:round;stroke-linejoin:round;stroke-miterlimit:10;stroke-dasharray:none;stroke-opacity:1"
       id="path106"
       inkscape:connector-curvature="0" /><path
       d="m 1073.21,1578.9 c 0,0 23.33,-114.99 -203.339,-148.32 0,0 33.344,113.32 60,133.32 0,0 -116.656,-148.32 -306.656,-183.32 0,0 33.328,143.33 146.656,195"
       style="fill:none;stroke:#231f20;stroke-width:14;stroke-linecap:round;stroke-linejoin:round;stroke-miterlimit:10;stroke-dasharray:none;stroke-opacity:1"
       id="path108"
       inkscape:connector-curvature="0" /><path
       d="m 848.547,1037.47 c 0,0 -42.5,-16.67 -38.332,-36.67 4.172,-19.999 19.172,-42.499 19.172,-42.499"
       style="fill:none;stroke:#231f20;stroke-width:14;stroke-linecap:round;stroke-linejoin:round;stroke-miterlimit:10;stroke-dasharray:none;stroke-opacity:1"
       id="path110"
       inkscape:connector-curvature="0" /><path
       d="m 827.715,1114.97 c 0,0 12.488,-56.67 9.172,-81.67"
       style="fill:none;stroke:#231f20;stroke-width:14;stroke-linecap:round;stroke-linejoin:round;stroke-miterlimit:10;stroke-dasharray:none;stroke-opacity:1"
       id="path112"
       inkscape:connector-curvature="0" /><path
       d="m 541.465,926.211 c -106.25,-5 -153.75,141.589 -116.25,194.089 27.051,37.88 81.687,13.53 91.902,-7.23"
       style="fill:none;stroke:#231f20;stroke-width:14;stroke-linecap:round;stroke-linejoin:round;stroke-miterlimit:10;stroke-dasharray:none;stroke-opacity:1"
       id="path114"
       inkscape:connector-curvature="0" /><path
       d="m 521.516,1047.47 c 0,0 -35.598,72.82 -75.93,38.67"
       style="fill:none;stroke:#231f20;stroke-width:14;stroke-linecap:round;stroke-linejoin:round;stroke-miterlimit:10;stroke-dasharray:none;stroke-opacity:1"
       id="path116"
       inkscape:connector-curvature="0" /><path
       d="m 1166.46,926.211 c 106.25,-5 153.75,141.589 116.25,194.089 -27.05,37.88 -81.68,13.53 -91.9,-7.23"
       style="fill:none;stroke:#231f20;stroke-width:14;stroke-linecap:round;stroke-linejoin:round;stroke-miterlimit:10;stroke-dasharray:none;stroke-opacity:1"
       id="path118"
       inkscape:connector-curvature="0" /><path
       d="m 1186.42,1047.47 c 0,0 35.59,72.82 75.92,38.67"
       style="fill:none;stroke:#231f20;stroke-width:14;stroke-linecap:round;stroke-linejoin:round;stroke-miterlimit:10;stroke-dasharray:none;stroke-opacity:1"
       id="path120"
       inkscape:connector-curvature="0" /><path
       d="m 1056.77,1517.58 c 0,0 -0.31,-78.94 106.99,-206.63 7.37,-8.77 24.28,-43.95 25.53,-74.71 4.24,-103.85 4.9,-330.271 -70.33,-411.279 -68.56,-73.832 -134.995,-110 -193.745,-127.5 -70,-24.172 -142.5,0 -142.5,0 -58.75,17.5 -125.188,53.668 -193.75,127.5 -69.024,74.336 -74.141,269.539 -71.25,383.109 0,0 6.25,213.07 133.191,244.58"
       style="fill:none;stroke:#231f20;stroke-width:14;stroke-linecap:round;stroke-linejoin:round;stroke-miterlimit:10;stroke-dasharray:none;stroke-opacity:1"
       id="path122"
       inkscape:connector-curvature="0" /><path
       d="m 446.121,1258.18 c -13.808,-27.65 -25.906,-50.11 -25.906,-50.11 -77.5,302.08 86.25,356.82 86.25,356.82 0,0 -64.824,20 -63.035,83.75 0,0 89.285,-21.25 187.617,36.25 91.016,53.23 220.152,89.63 350.84,64.69 117.903,-22.5 140.823,-106.09 140.823,-106.09 0,0 117.1,-16.81 161.25,-142.91 47.5,-135.69 7.5,-266.94 7.5,-266.94 0,0 -10.82,33.52 -24.26,69.47"
       style="fill:none;stroke:#231f20;stroke-width:14;stroke-linecap:round;stroke-linejoin:round;stroke-miterlimit:10;stroke-dasharray:none;stroke-opacity:1"
       id="path124"
       inkscape:connector-curvature="0" /><path
       d="m 437.117,1240.38 c 0,0 -4.012,-34.2 17.238,-93.79"
       style="fill:none;stroke:#231f20;stroke-width:14;stroke-linecap:round;stroke-linejoin:round;stroke-miterlimit:10;stroke-dasharray:none;stroke-opacity:1"
       id="path126"
       inkscape:connector-curvature="0" /><path
       d="m 1279.27,1269.7 c 0,0 -2.61,-53.52 -32.82,-124.55"
       style="fill:none;stroke:#231f20;stroke-width:14;stroke-linecap:round;stroke-linejoin:round;stroke-miterlimit:10;stroke-dasharray:none;stroke-opacity:1"
       id="path128"
       inkscape:connector-curvature="0" /><path
       d="m 758.254,1294.82 c -4.121,-3.46 -15.024,3.39 -30.742,12.97 -15.532,9.39 -37.199,21.26 -57.793,18.28 -20.735,-2.46 -38.547,-19.16 -49.153,-32.36 -11.046,-13.39 -15.207,-23.54 -20.363,-24.01 -2.527,-0.15 -5.348,3.16 -6.48,9.76 -1.118,6.53 -0.442,15.98 3.257,26.65 3.711,10.64 10.317,22.72 21.313,33.8 10.816,10.96 27.027,21.06 46.562,23.52 19.532,2.62 37.774,-3.06 50.86,-10.63 13.34,-7.61 22.742,-16.86 29.512,-25.11 13.394,-16.75 16.851,-29.71 13.027,-32.87"
       style="fill:#231f20;fill-opacity:1;fill-rule:nonzero;stroke:none"
       id="path130"
       inkscape:connector-curvature="0" /><path
       d="m 949.68,1294.82 c -3.828,3.16 -0.371,16.12 13.023,32.87 6.77,8.25 16.176,17.5 29.516,25.11 13.081,7.57 31.321,13.25 50.861,10.63 19.53,-2.46 35.74,-12.56 46.56,-23.52 10.99,-11.08 17.6,-23.16 21.31,-33.8 3.7,-10.67 4.37,-20.12 3.25,-26.65 -1.12,-6.6 -3.96,-9.91 -6.49,-9.76 -5.15,0.47 -9.3,10.62 -20.35,24.01 -10.6,13.2 -28.41,29.9 -49.15,32.36 -20.59,2.98 -42.265,-8.89 -57.788,-18.28 -15.727,-9.58 -26.621,-16.43 -30.742,-12.97"
       style="fill:#231f20;fill-opacity:1;fill-rule:nonzero;stroke:none"
       id="path132"
       inkscape:connector-curvature="0" /><path
       d="m 968.438,618.789 c 63.752,-22.301 209.772,-67 229.272,-72.648 56.25,-16.25 97.71,-183.379 97.71,-535.1527"
       style="fill:none;stroke:#231f20;stroke-width:14;stroke-linecap:round;stroke-linejoin:round;stroke-miterlimit:10;stroke-dasharray:none;stroke-opacity:1"
       id="path134"
       inkscape:connector-curvature="0" /><path
       d="M 1213.85,393.27 1147.71,10.5703"
       style="fill:none;stroke:#231f20;stroke-width:14;stroke-linecap:round;stroke-linejoin:round;stroke-miterlimit:10;stroke-dasharray:none;stroke-opacity:1"
       id="path136"
       inkscape:connector-curvature="0" /><path
       d="M 495.449,363.93 556.523,10.5703"
       style="fill:none;stroke:#231f20;stroke-width:14;stroke-linecap:round;stroke-linejoin:round;stroke-miterlimit:10;stroke-dasharray:none;stroke-opacity:1"
       id="path138"
       inkscape:connector-curvature="0" /><path
       d="m 855.215,749.121 c -69.16,0 -129.16,165 -129.16,165 26.66,-12.5 85.832,-21.66 128.332,-21.66 l -0.832,0 c 42.5,0 101.66,9.16 128.332,21.66 0,0 -60,-165 -129.172,-165 l 2.5,0"
       style="fill:#ed5d84;fill-opacity:1;fill-rule:nonzero;stroke:none"
       id="path140"
       inkscape:connector-curvature="0" /><path
       d="m 758.34,843.117 c 26.18,14.461 57.859,22.969 92.051,22.969 36.613,0 70.285,-9.836 97.461,-26.223 20.957,38.332 34.035,74.258 34.035,74.258 -26.582,-12.461 -85.442,-21.59 -127.922,-21.648 -42.461,0.058 -101.328,9.187 -127.91,21.648 0,0 12.363,-33.926 32.285,-71.004"
       style="fill:#d54851;fill-opacity:1;fill-rule:nonzero;stroke:none"
       id="path142"
       inkscape:connector-curvature="0" /><path
       d="m 855.215,749.121 c -69.16,0 -129.16,165 -129.16,165 26.66,-12.5 85.832,-21.66 128.332,-21.66 l -0.832,0 c 42.5,0 101.66,9.16 128.332,21.66 0,0 -60,-165 -129.172,-165 l 2.5,0 z"
       style="fill:none;stroke:#231f20;stroke-width:14;stroke-linecap:round;stroke-linejoin:round;stroke-miterlimit:10;stroke-dasharray:none;stroke-opacity:1"
       id="path144"
       inkscape:connector-curvature="0" /><path
       d="m 839.16,475.879 c 0,0 14.903,6.633 26.524,0.73"
       style="fill:none;stroke:#231f20;stroke-width:12;stroke-linecap:round;stroke-linejoin:round;stroke-miterlimit:10;stroke-dasharray:none;stroke-opacity:1"
       id="path146"
       inkscape:connector-curvature="0" /><path
       d="m 137.301,274.129 c 0,0 59.59,-21.469 132.187,41.449"
       style="fill:none;stroke:#231f20;stroke-width:14;stroke-linecap:round;stroke-linejoin:round;stroke-miterlimit:10;stroke-dasharray:none;stroke-opacity:1"
       id="path148"
       inkscape:connector-curvature="0" /></g></svg>