<?xml version="1.0" encoding="utf-8"?>
<svg version="1.1" id="Layer_1" xmlns="http://www.w3.org/2000/svg" xmlns:xlink="http://www.w3.org/1999/xlink" x="0px" y="0px"
	 viewBox="0 0 4669.16 5000" enable-background="new 0 0 4669.16 5000" xml:space="preserve">
<g>
	<g>
		<g id="chair_15_">
			<path fill="#8090BE" d="M3691.058,3608.206c0,0,77.17,0,180.296,0s118.623-95.595,118.623-95.595v-405.582H3809.68v405.582
				h-118.622V3608.206z"/>
			<path fill="#616F95" d="M3809.68,3107.021v405.589h-118.615v95.595c0,0,77.163,0,180.289,0c16.098,0,29.406-2.863,41.503-6.799
				c-60.377-23.237-69.024-82.28-69.024-82.28v-412.105H3809.68z"/>
			<g>
				<path fill="#323249" d="M3380.086,2386.807c-31.696,590.517,225.155,823.5,557.422,823.5
					c332.26,0,614.124-232.983,645.813-823.5c31.689-590.517-198.786-1314.95-531.046-1314.95
					C3720.007,1071.856,3411.774,1796.289,3380.086,2386.807z"/>
				<path fill="#3E3E5B" d="M3320.202,2378.638c-30.638,570.882,217.675,796.124,538.889,796.124
					c321.221,0,593.706-225.242,624.344-796.124c30.639-570.889-192.176-1271.237-513.397-1271.237
					C3648.823,1107.401,3350.84,1807.749,3320.202,2378.638z"/>
				<path fill="#323249" d="M4107.802,1207.758c0,0-1.08-0.5-3.088-1.37c-8.27-3.892-66.9-28.913-176.448-46.453l-0.014-0.007
					c-21.578-3.457-44.083-6.603-69.604-9.14l0.225-0.406c0,0-8.328-1.174-21.838-2.682
					c-266.418,154.892-490.493,740.132-516.833,1230.937c-30.638,570.882,217.668,796.124,538.889,796.124
					c90.791,0,177.375-18.751,256.017-57.448c0.87-3.153,1.791-6.233,2.646-9.415c2.906,2.03,4.552,3.218,6.784,4.798
					c8.813-4.566,17.555-9.278,26.144-14.373c68.806-120.463,96.632-521.885,83.833-926.568l36.421,13.358
					C4321.802,1829.051,4354.499,1297.127,4107.802,1207.758z"/>
			</g>
			
				<rect x="2584.411" y="4181.32" transform="matrix(-1.836970e-16 1 -1 -1.836970e-16 7481.5679 973.8043)" fill="#8090BE" width="1338.941" height="92.732"/>
			
				<rect x="2613.835" y="4210.744" transform="matrix(-1.836970e-16 1 -1 -1.836970e-16 7510.9917 944.3806)" fill="#616F95" width="1338.941" height="33.885"/>
			<polygon fill="#616F95" points="3203.123,3927.18 3129.41,3579.822 3378.361,3579.822 3304.647,3927.18 			"/>
			<polygon fill="#8090BE" points="3775.114,4978.944 2732.656,4978.944 2732.656,4950.358 3151.408,4880.479 3356.37,4880.479 
				3775.114,4950.358 			"/>
			<polygon fill="#8090BE" points="3380.789,4888.423 3126.982,4888.423 3174.117,4592.244 3333.654,4592.244 			"/>
			<polygon fill="#616F95" points="3174.117,4592.244 3333.654,4592.244 3380.151,4884.451 3775.114,4950.358 3080.138,4950.358 
				3203.123,4897.157 3236.313,4618.46 			"/>
			<g>
				<path fill="#3E3E5B" d="M2532.834,3496.599h1442.104l0,0c0-72.394-58.687-131.082-131.082-131.082H2663.908
					C2591.515,3365.517,2532.834,3424.205,2532.834,3496.599L2532.834,3496.599z"/>
				<path fill="#323249" d="M2673.867,3365.517h606.463c-77.895,0-141.041,58.688-141.041,131.075h-606.456
					C2532.834,3424.205,2595.979,3365.517,2673.867,3365.517z"/>
				<path fill="#323249" d="M3972.64,3473.659c1.42,7.458,2.297,15.098,2.297,22.933H2532.834c0-7.835,0.877-15.475,2.291-22.933
					H3972.64z"/>
				
					<rect x="2476.415" y="3491.352" transform="matrix(-1 -1.224647e-16 1.224647e-16 -1 6507.7651 7159.6582)" fill="#3E3E5B" width="1554.935" height="176.955"/>
				
					<rect x="2476.415" y="3491.352" transform="matrix(-1 -1.224647e-16 1.224647e-16 -1 5957.7207 7159.6582)" fill="#323249" width="1004.89" height="176.955"/>
			</g>
			<path fill="#323749" d="M3456.06,3860.222c-9.879,0-18.272-1.015-24.586-3.334c-51.302-18.686-40.763-178.55-39.334-196.706
				c0.296-4.044,3.688-7.139,7.675-7.139c0.181,0,0.355,0,0.594,0.058c4.226,0.297,7.444,3.986,7.081,8.277
				c-4.82,64.095-1.131,169.917,29.225,180.992c36.725,13.032,175.99-29.58,226.64-47.258c4.11-1.37,8.451,0.833,9.886,4.762
				c1.363,4.044-0.775,8.451-4.762,9.879C3651.81,3815.523,3521.648,3860.222,3456.06,3860.222z"/>
			<path fill="#323749" d="M3707.265,3741.875c-33.762,8.922-83.716,44.88-76.779,71.118c6.936,26.238,68.132,32.812,101.886,23.897
				c33.754-8.923,55.499-37.429,48.57-63.667C3774.005,3746.992,3741.019,3732.953,3707.265,3741.875z"/>
		</g>
		<g>
			<path fill="#322F28" d="M2894.528,712.967c8.655,98.9,75.337,173.853,148.956,167.402
				c73.619-6.451,126.284-91.855,117.637-190.755c-8.654-98.9-75.344-173.846-148.956-167.395
				C2938.546,528.662,2885.881,614.067,2894.528,712.967z"/>
			<g>
				<path fill="#EC9458" d="M2944.46,1385.409c-59.652,19.563-90.978,228.968-154,540.208
					c-21.418,105.808-81.882,306.725-81.882,306.725c-22.832,187.922-11.648,325.737,81.882,340.313
					C3078.601,2617.55,3289.427,1272.274,2944.46,1385.409z"/>
				<path fill="#EC9458" d="M2790.46,2572.655c-271.108-32.95-515.101-386.715-728.746-400.769l43.989-95.414
					c132.205-13.561,494.8,127.001,602.911,155.87C2875.212,2289.182,2843.081,2579.048,2790.46,2572.655z"/>
				<g>
					<path fill="#D87238" d="M1871.88,2175.082c0,0,0.239,55.434,5.371,68.988c6.161,16.25,61.964,90.188,78.584,84.208
						c23.926-8.611-9.575-49.772-9.575-49.772l98.85-115.636L1871.88,2175.082z"/>
					<path fill="#EC9458" d="M2157.172,2076.233c-67.915-3.247-136.192,8.625-188.255,19.461
						c-45.301,9.423-78.693,17.062-84.339,25.963c-11.575,18.287-12.699,53.426-12.699,53.426s-26.709,19.048-52.585,34.733
						c-30.862,18.708-69.646,37.089-60.884,48.896c16.526,22.237,109.707-37.755,153.58-54.527
						c54.615-20.875,76.649-27.086,85.636-19.157c10.851,9.567-12.865,44.837-24.882,56.789
						c-12.018,11.952-44.033,37.031-27.297,51.454c16.743,14.431,51.361-23.353,74.663-42.22
						c23.303-18.874,117.05-52.977,129.561-94.958C2152.788,2145.633,2186.135,2077.61,2157.172,2076.233z"/>
				</g>
			</g>
			<g>
				<g>
					<g>
						<path fill="#EC9458" d="M2306.099,4831.648c0,0-37.683,62.805-128.958,100.48c-91.276,37.683-151.015,29.239-143.477,54.39
							c7.538,25.158,365.833,12.532,361.97-16.743c-3.863-29.275-26.188-71.14-30.92-138.127
							C2359.981,4764.669,2306.099,4831.648,2306.099,4831.648z"/>
					</g>
					<path fill="#D87238" d="M2364.714,4831.648c-4.74-66.987-58.615,0-58.615,0s-11.119,17.954-34.914,40.314
						c40.256,8.741,70.64,27.876,81.904,57.535c6.712,17.678,5.74,37.125-0.942,56.97c26.876-4.617,44.344-10.212,43.489-16.692
						C2391.771,4940.5,2369.447,4898.635,2364.714,4831.648z"/>
				</g>
				<g>
					<g>
						<path fill="#FAB276" d="M2938.452,4797.764c0,0,5.117,75.438-98.689,120.703c-103.801,45.264-111.201,35.124-106.077,65.341
							c5.132,30.217,285.894,15.047,285.263-20.113c-0.638-35.168-19.801-85.462-16.779-165.931
							C3005.185,4717.295,2938.452,4797.764,2938.452,4797.764z"/>
					</g>
					<path fill="#EC9458" d="M3000.539,4831.648c-4.74-66.987-58.615,0-58.615,0s-11.119,17.954-34.914,40.314
						c40.256,8.741,70.64,27.876,81.904,57.535c6.712,17.678,5.741,37.125-0.942,56.97c26.883-4.617,44.344-10.212,43.489-16.692
						C3027.596,4940.5,3005.279,4898.635,3000.539,4831.648z"/>
				</g>
				<polygon fill="#2A2E3D" points="2958.739,2757.322 4037.517,2766.824 3019.008,3018.515 				"/>
				<path fill="#2B2B47" d="M2886.961,2785.829c343.35-110.062,549.465,1.131,552.233,478.447l-1368.745-17.569
					c0,0-45.381-196.931,116.628-288.322C2270.503,2911.323,2640.925,2825.549,2886.961,2785.829z"/>
				<path fill="#232339" d="M3019.008,3018.515c0,0-140.259,52.418-353.237,85.694c-212.993,33.283-278.805,36.038-291.946,72.93
					c-13.126,36.893,72.162,546.275,77.844,706.016c4.9,137.873-95.21,752.505-115.505,950.545h69.168
					c0,0,187.088-668.058,164.691-1003.224c-18.338-274.312-55.977-464.458-55.977-464.458h401.531
					C3002.337,3344.317,3019.008,3018.515,3019.008,3018.515z"/>
				<path fill="#232339" d="M2582.745,3268.386c5.225,33.58,10.248,66.001,15.162,97.632h317.671
					c28.158-7.045,48.562-46.83,63.761-96.429c-0.123-0.449-0.261-0.993-0.384-1.435h0.863c1.015-3.356,2.226-6.299,3.197-9.734
					l456.181,5.849c-1.348-232.99-51.469-378.206-142.034-453.579c-377.894,0.029-597.149,71.626-666.274,134.459
					C2530.021,3036.852,2582.745,3268.386,2582.745,3268.386z"/>
				<path fill="#2E2E4C" d="M4010.214,2774.631c0,0-13.735,346.322-123.776,493.03l-1221.943,0.725
					c0,0-52.723-231.533,48.142-323.229C2832.673,2836.037,3615.917,2783.8,4010.214,2774.631z"/>
				<path fill="#232339" d="M3158.468,2827.121c0,0,91.362-10.908,134.387-19.099c111.961-21.31,297.549-19.266,690.331,260.178
					l-72.061,139.374C3911.125,3207.574,3396.706,2843.132,3158.468,2827.121z"/>
				<path fill="#232339" d="M3163.542,3784.595c-9.625-247.827-57.985-418.578-57.985-418.578h695.521
					c143.736-114.991,153.456-195.264,182.108-297.817l-305.645-142.933c0,0-31.319,148.202-91.218,181.485
					c-59.906,33.276-653.822,33.907-679.328,60.688c-25.506,26.782,108.294,443.533,135.793,633.223
					s-62.892,1032.977-62.892,1032.977l0.109,0.058h73.373C3053.378,4833.7,3180.531,4039.047,3163.542,3784.595z"/>
				<path fill="#2B2B47" d="M2070.449,3246.707c152.992,883.638,185.63,1586.993,185.63,1586.993h151.391
					c0,0,149.304-748.765,122.218-1003.224c-27.087-254.459-59.579-688.178-59.579-688.178L2070.449,3246.707z"/>
				<path fill="#2E2E4C" d="M2664.495,3268.386c176.107,1132.754,169.374,1133.907,216.957,1565.314h171.925
					c0,0,127.153-794.653,110.171-1049.104c-16.99-254.459-139.693-642.298-139.693-642.298L2664.495,3268.386z"/>
				<path fill="#232339" d="M3163.542,3784.595c-0.007-0.159-0.014-0.275-0.029-0.435
					c-15.271-227.25-116.629-591.445-135.873-633.672c-11.458,0.747-22.382,1.515-32.616,2.327l-91.087,33.218
					c5.038,68.313,114.534,446.896,138.852,614.632c27.507,189.69-62.892,1032.977-62.892,1032.977l0.109,0.065h73.38
					c0,0,7.3-54.165,17.997-139.374C3103.455,4438.693,3176.284,3975.438,3163.542,3784.595z"/>
				<path fill="#232339" d="M2470.109,3142.298c-38.967,2.646-105.301,8.183-127.074,28.456
					c-22.128,36.893,105.097,552.66,110.78,712.401c4.9,137.873-95.218,752.505-115.513,950.552h69.176
					c38.423-207.441,170.338-638.978,164.568-968.397C2569.205,3702.721,2505.175,3270.132,2470.109,3142.298z"/>
				<path fill="#232339" d="M2886.961,2785.829c0,0,114.245-4.443,148.651,56.912l305.196-36.335
					C3340.808,2806.406,3016.26,2725.278,2886.961,2785.829z"/>
			</g>
			<path fill="#EC9458" d="M3666.828,172.947c-155.124-29.637-225.901,61.29-261.127,186.03
				c79.309,120.811,70.676,306.181,70.676,306.181l34.82-5.784v-0.007c6.994-33.269,33.226-60.725,68.669-66.697
				c45.778-7.712,88.636,23.121,95.732,68.871c7.103,45.75-24.259,89.094-70.031,96.806c-29.92,5.037-57.55-7.437-75.801-28.739
				c0.247,7.966,0.558,14.496,0.805,22.701c-3.515,69.053-7.908,113.672-17.736,149.209
				C3695.965,877.977,3869.26,399.008,3666.828,172.947z"/>
			<path fill="#B85727" d="M3666.828,172.947c-155.124-29.637-225.901,61.29-261.127,186.03
				c79.309,120.811,70.676,306.181,70.676,306.181l34.82-5.784v-0.007c6.994-33.269,33.226-60.725,68.669-66.697
				c45.778-7.712,88.636,23.121,95.732,68.871c7.103,45.75-24.259,89.094-70.031,96.806c-29.92,5.037-57.55-7.437-75.801-28.739
				c0.247,7.966,0.558,14.496,0.805,22.701c-3.515,69.053-7.908,113.672-17.736,149.209
				C3695.965,877.977,3869.26,399.008,3666.828,172.947z"/>
			<path fill="#B85727" d="M2997.799,614.784c0,0-18.36,3.262-80.323-216.24c-107.358-104.003-94.428-210.021-78.062-258.975
				c65.733-196.554,335.464-70.799,483.231-116.267c283.393-87.195,408.452,91.79,374.299,183.573
				c-57.883,68.147-298.245,137.46-298.245,137.46C3200.869,453.347,2997.799,614.784,2997.799,614.784z"/>
			<path fill="#2DBEC4" d="M2916.592,1393.266c-136.844,95.871-211.094,685.018-211.094,685.018l256.438,50.824l32.979-147.644
				c0,0,18.599-192.85,0.602-343.255C2977.512,1487.803,2916.592,1393.266,2916.592,1393.266z"/>
			<path fill="#2DBEC4" d="M3989.781,3120.256c145.563-152.341,135.822-1447.438-27.311-1831.109c0,0-199.504-99.132-603.962-50.853
				c-298.709,35.661-441.816,154.348-441.816,154.348c-67,149.325,13.59,531.858,72.974,931.787
				c59.587,401.305-102.706,461.399-102.706,461.399s221.321-30.29,548.312,64.175
				C3748.92,2940.612,3989.781,3120.256,3989.781,3120.256z"/>
			<path fill="#0C9EAD" d="M3755.726,1237.331c-97.762-13.242-228.634-19.164-397.217,0.964
				c-120.979,14.438-215.146,42.467-285.909,70.749c31.145,58.304,126.697,197.511,324.403,182.109
				C3598.261,1475.467,3717.318,1303.114,3755.726,1237.331z"/>
			<path fill="#0C9EAD" d="M3962.47,1289.147c0,0-60.993-28.84-179.564-47.83c-6.878,136.779-55.332,751.99-374.879,882.028
				c-238.578,97.081-400.204-28.028-464.567-94.327c14.954,95.073,31.247,194.677,46.207,295.411
				c59.587,401.305-102.706,461.392-102.706,461.392s221.321-30.283,548.312,64.182c313.647,90.608,554.509,270.253,554.509,270.253
				C4135.345,2967.916,4125.604,1672.818,3962.47,1289.147z"/>
			<path fill="#EC9458" d="M3573.393,622.46c0,0-54.789,409.713,43.387,615.755c-120.13,57.376-356.222,142.034-407.531,30.515
				c0,0,13.655-67.813-15.873-246.551L3573.393,622.46z"/>
			<path fill="#EC9458" d="M3116.501,1292.373c0,0,73.525,176.984,283.35,160.632s313.69-221.226,313.69-221.226
				S3399.946,1183.513,3116.501,1292.373z"/>
			<path fill="#D1652F" d="M3567.746,675.364l-59.645,15.772l-314.727,331.042c14.858,89.927,18.715,151.058,18.961,190.096
				c36.052,52.092,127.256,155.059,304.891,207.875c130.502-61.805,196.315-188.371,196.315-188.371s-39.763-5.987-103.046-8.966
				C3541.451,1059.593,3557.229,788.688,3567.746,675.364z"/>
			<path fill="#FAB276" d="M3530.571,752.31c-10.568,207.499-24.115,203.483-193.865,349.569
				c-36.364,31.29-152.928,39.444-184.848,23.216c-31.921-16.229-35.262-47.076-80.548-114.643
				c-51.208-76.395-79.968-156.537-85.622-201.548c-7.553-60.094-3.79-101.357-8.009-144.092
				c-8.103-82.201-28.5-154.79-31.247-249.153c-2.704-93.037,104.387-160.103,244.493-166.887
				C3511.776,233.23,3519.017,367.392,3530.571,752.31z"/>
			<path fill="#EC9458" d="M3298.921,1100.61c235.998-173.425,171.454-724.882,66.726-797.755
				c203.447,24.201,178.956,216.631,165.771,492.82c-9.647,150.543-29.797,193.575-203.679,321.352
				c-37.241,27.369-149.739,26.456-179.166,8.451c-4.566-2.798-8.233-6.219-11.59-9.959
				C3179.676,1126.659,3266.928,1124.123,3298.921,1100.61z"/>
			<path fill="#EC9458" d="M3138.819,562.967c0,0,30.919,24.825,41.523,52.744c54.18,132.771-66.885,152.717-57.361,185.247
				c13.881,47.439,107.757,24.412,107.757,24.412c-8.161,33.392-113.121,31.754-125.972-16.446
				c-15.134-56.782,107.548-60.725,64.827-187.131C3162.28,600.15,3138.819,562.967,3138.819,562.967z"/>
			<path fill="#B85727" d="M3475.964,348.119l-77.265-3.784c0,0-62.58-101.379-260.736-82.324
				c-181.434,17.453-193.227,142.744-193.227,142.744s-57.311-309.559,304.058-294.99
				C3315.411,112.447,3485.77,252.488,3475.964,348.119z"/>
			<g>
				<path fill="#EC9458" d="M3509.834,689.476c7.096,45.75,49.961,76.591,95.733,68.871c45.779-7.712,77.134-51.056,70.038-96.806
					c-7.103-45.75-49.961-76.583-95.74-68.871C3534.093,600.382,3502.738,643.726,3509.834,689.476z"/>
				<path fill="#D1652F" d="M3580.075,718.258c21.324-4.74,35.001-25.854,30.551-47.149c-4.342-20.773-24.361-33.762-45.127-30.007
					c5.139-3.791,11.01-6.712,17.628-8.183c25.179-5.596,49.852,10.256,55.114,35.4c5.255,25.151-10.894,50.077-36.074,55.68
					c-11.959,2.653-23.658,0.196-33.363-5.516C3572.523,718.744,3576.242,719.113,3580.075,718.258z"/>
			</g>
			<path fill="#B85727" d="M3428.496,460.356c-8.422-15.453-49.128,16.062-109.439,31.631
				c-60.319,15.562-107.989,5.646-104.952,31.247c3.566,30.029,59.55,38.473,119.811,22.643
				C3411.905,525.386,3438.215,478.165,3428.496,460.356z"/>
			<path fill="#B85727" d="M2943.286,523.313c3.718-16.656,31.21-5.095,77.265-1.355c46.054,3.747,84.767-7.335,86.513,18.2
				c2.051,29.949-36.639,41.771-82.686,37.763C2964.777,572.723,2939.003,542.521,2943.286,523.313z"/>
			<path fill="#B85727" d="M3398.554,344.415c0,0,0.101-0.058,0.145-0.087c0,0,39.169-11.474,89.261-29.239l119.825,142.672
				l-68.226,153.986l-16.49,64.211l-42.502,3.986C3480.567,679.945,3474.782,441.134,3398.554,344.415z"/>
			<g>
				<g>
					<path fill="#562824" d="M3265.29,645.77c-58.739-70.437,125.69-78.417,144.498-21.498l-8.422,8.147
						C3401.366,632.419,3272.009,655.323,3265.29,645.77z"/>
					<path fill="#F5EDE2" d="M3266.443,648.379c-4.733-15.409,11.053-32.37,46.199-37.523c30.623-5.755,88.536,6.719,88.724,21.563
						C3401.547,646.299,3305.974,725.499,3266.443,648.379z"/>
					<path fill="#562824" d="M3319.18,603.883c-3.414-0.304-6.385,0.594-9.553,1.015c-4.965,0.935-9.198,2.457-13.322,4.073
						c-12.3,6.48-20.628,18.555-20.019,33.928c0.537,13.365,7.698,25.426,17.946,34.189c9.662,4.697,20.055,6.241,30.377,5.095
						c13.126-1.464,25.622-7.125,37.19-13.706c2.464-5.291,3.965-11.155,3.704-17.656
						C3364.56,627.084,3343.823,606.072,3319.18,603.883z"/>
				</g>
				<g>
					<path fill="#562824" d="M2994.791,664.187c-51.686-61.993,107.446-75.141,127.545-17.229l-8.545,8.654
						C3113.791,655.613,3001.126,673.211,2994.791,664.187z"/>
					<path fill="#F5EDE2" d="M2995.871,666.651c-4.465-14.547,22.216-32.638,43.365-35.385c38.574-7.031,75.271,7.611,75.453,21.621
						C3114.856,665.999,3033.184,739.459,2995.871,666.651z"/>
					<path fill="#562824" d="M3053.044,628.903c-4.573,0.21-8.951-0.232-13.655,0.623c-8.807,1.145-18.229,5.603-26.34,11.053
						c-4.53,6.009-7.647,13.177-7.305,21.694c0.521,13.083,8.037,24.738,18.525,32.783c8.69,3.755,17.809,4.958,26.738,3.588
						c12.242-1.877,23.6-7.937,33.783-14.75c1.725-4.371,2.689-9.183,2.486-14.38
						C3086.516,650.568,3071.715,634.245,3053.044,628.903z"/>
				</g>
			</g>
			<g>
				<path fill="#D87238" d="M3313.635,935.194c0.355,5.197-46.656-24.412-120.398-17.722c-69.263,6.284-85.028,44.866-85.644,36.255
					c-0.616-8.611,16.859-52.592,82.94-57.985C3265.769,887.987,3314.368,927.17,3313.635,935.194z"/>
				<path fill="#EC9458" d="M3245.699,980.335c0.725,8.321-14.119,16.417-33.167,18.084c-19.042,1.667-35.074-3.726-35.806-12.046
					c-0.725-8.321,14.118-16.417,33.167-18.084S3244.967,972.014,3245.699,980.335z"/>
			</g>
			<path fill="#322F28" d="M3164.375,31.24c0,0,369.001-10.205,421.484,476.012l74.678-15.25c0,0,14.539-423.282-326.23-472.148
				L3164.375,31.24z"/>
			<g>
				<path fill="#2B2923" d="M3798.837,718.722c-25.861,113.73-115.44,190.321-200.098,171.062
					c-84.65-19.258-132.314-127.074-106.46-240.804s115.44-190.313,200.091-171.055
					C3777.028,497.184,3824.691,604.992,3798.837,718.722z"/>
				<path fill="#322F28" d="M3805.477,713.532c-22.012,96.813-98.262,162.002-170.323,145.607
					c-72.053-16.395-112.628-108.163-90.623-204.969c22.012-96.806,98.262-161.995,170.323-145.607
					C3786.907,524.958,3827.482,616.727,3805.477,713.532z"/>
				<path opacity="0.4" fill="#322F28" d="M3690.754,660.382c-30.79,53.331-78.41,83.491-106.359,67.357
					c-27.948-16.134-25.644-72.452,5.146-125.791c30.79-53.339,78.41-83.491,106.359-67.357S3721.544,607.043,3690.754,660.382z"/>
				<path opacity="0.4" fill="#322F28" d="M3625.586,780.026c4.566,17.04-0.681,33.254-11.727,36.211
					c-11.047,2.964-23.701-8.451-28.276-25.484c-4.566-17.04,0.681-33.254,11.728-36.219
					C3608.357,751.577,3621.012,762.986,3625.586,780.026z"/>
			</g>
			<path fill="#CB7028" d="M2928.435,76.895c119.898-84.469,424.217,8.459,411.468,108.997
				c-5.842,46.04-144.426-21.795-297.02,40.879c-118.796,48.787-109.004,117.173-138.974,92.645
				C2873.929,294.896,2820.931,152.638,2928.435,76.895z"/>
			<path fill="#CB7028" d="M3368.01,200.396c48.388-37.204,171.484,95.987,121.834,135.177
				C3440.187,374.756,3327.428,231.599,3368.01,200.396z"/>
			<rect x="3598.775" y="878.035" fill="#2B2923" width="35.421" height="51.773"/>
			<path fill="#2B2923" d="M3305.525,2615.52l-2.124-10.655c347.612-70.923,309.385-1658.887,308.965-1674.92l10.901-0.283
				C3625.035,995.49,3662.051,2542.786,3305.525,2615.52z"/>
			<g>
				<g>
					<path fill="#FAB276" d="M3948.271,1385.409c-59.652,19.563-90.978,228.968-154,540.208
						c-21.418,105.808-81.882,306.725-81.882,306.725c-22.824,187.922-11.647,325.737,81.882,340.313
						C4082.412,2617.55,4293.237,1272.274,3948.271,1385.409z"/>
					<path fill="#FAB276" d="M3794.271,2572.655c-271.108-32.95-386.244-220.407-700.978-321.236l-26.354-90.775
						c163.967,0.855,542.738,75.337,645.495,71.698C3879.023,2289.182,3846.892,2579.048,3794.271,2572.655z"/>
				</g>
				<path fill="#FAB276" d="M3066.939,2160.644c-89.456,0.855-174.041,28.579-208.955,39.241
					c-34.914,10.662-63.406,37.197-89.898,59.601c-26.492,22.396-57.651,61.877-44.931,72.778
					c12.713,10.894,50.86-32.703,70.843-49.055c19.983-16.344,54.455-35.574,58.094-33.754c3.631,1.812-30.514,27.702-52.085,48.287
					c-15.047,14.366-54.716,75.917-42.698,85.68c13.518,10.988,46.352-37.574,64.581-58.318
					c15.938-18.135,52.839-50.121,57.963-46.018c5.132,4.102-31.631,40.205-40.865,53.542
					c-9.226,13.337-30.072,51.041-18.664,63.399c11.416,12.358,41.3-35.893,53.607-49.229
					c12.314-13.336,38.922-51.106,45.076-50.077c6.154,1.022-20.519,37.958-26.673,53.346c-6.154,15.388-7.886,51.563,3.399,52.592
					c11.285,1.022,19.381-31.964,28.616-46.33c9.226-14.358,35.428-42.829,35.428-42.829s66.755-10.307,133.517-62.08
					C3101.976,2220.76,3090.742,2190.557,3066.939,2160.644z"/>
				<path fill="#EC9458" d="M3763.452,2052.329l-24.76,89.717l292.309,141.12c13.728-38.937,25.129-79.222,35.719-119.644
					L3763.452,2052.329z"/>
				<path fill="#EC9458" d="M3976.307,2414.313c-145.912,183.181-381.446,35.044-560.104-48.446
					c-212.711-99.408-322.911-114.448-322.911-114.448c314.734,100.828,429.87,288.286,700.978,321.236
					C3861.156,2583.071,3923.744,2518.077,3976.307,2414.313z"/>
			</g>
			<path fill="#0C9EAD" d="M3962.47,1289.147c246.696,89.376,213.993,539.904,163.133,895.967l-435.995-159.864
				C3689.608,2025.25,3862.403,1252.9,3962.47,1289.147z"/>
		</g>
		<g id="table_14_">
			<rect x="4426.254" y="2562.283" fill="#CB7441" width="87.224" height="2437.717"/>
			<rect x="3381.876" y="2562.283" fill="#CB7441" width="51.896" height="2437.717"/>
			<rect x="3329.987" y="2562.283" fill="#B04D26" width="51.889" height="2437.717"/>
			<rect x="3331.603" y="2569.669" fill="#CB7441" width="1181.875" height="254.118"/>
			<rect x="1222.769" y="2562.283" fill="#A13E23" width="87.216" height="2437.717"/>
			<rect x="1858.405" y="2562.283" fill="#A13E23" width="87.216" height="2437.717"/>
			<rect x="175.144" y="2562.283" fill="#B04D26" width="87.223" height="2437.717"/>
			<rect x="1349.748" y="2562.283" fill="#B04D26" width="87.217" height="2437.717"/>
			<rect x="175.144" y="2569.669" fill="#B04D26" width="3206.732" height="254.118"/>
			<rect x="175.078" y="2569.596" fill="#B04D26" width="1261.887" height="2329.583"/>
			<rect x="1424.926" y="2569.589" fill="#A13E23" width="520.696" height="2329.583"/>
			<rect x="175.144" y="2562.979" fill="#A13E23" width="3206.732" height="153.797"/>
			<rect x="3381.876" y="2569.669" fill="#B7572B" width="1131.602" height="147.107"/>
			<rect x="3349.506" y="2482.097" fill="#DA8150" width="1319.654" height="166.656"/>
			<rect y="2482.097" fill="#BF5B33" width="3383.5" height="166.656"/>
			<rect y="2482.097" fill="#F5905F" width="4669.16" height="34.443"/>
		</g>
		<g>
			<g>
				<polygon fill="#33323D" points="3033.714,2482.576 1131.682,2482.576 1131.682,2409.138 2654.892,2409.138 3033.714,2439.116 
									"/>
				<polygon fill="#767283" points="3033.714,2482.576 2374.267,2482.576 2374.267,2409.138 2654.892,2409.138 3033.714,2439.116 
									"/>
			</g>
			<g>
				<polygon fill="#767283" points="2300.866,857.726 2300.866,2207.46 2027.221,2207.46 1460.673,2207.46 1460.673,2429.324 
					1707.167,2429.324 1707.167,2482.163 1087.287,2482.163 1087.287,2429.324 1331.809,2429.324 1331.809,2207.46 786.078,2207.46 
					487.957,2207.46 487.957,857.726 				"/>
				<g>
					<rect x="487.957" y="857.726" fill="#33323D" width="1746.937" height="1350.531"/>
					<rect x="1263.068" y="2011.522" fill="#2D2D38" width="149.68" height="442.453"/>
					<rect x="1018.546" y="2430.121" fill="#2D2D38" width="638.731" height="52.041"/>
					<g>
						<rect x="2020.11" y="1743.886" fill="#454551" width="214.783" height="49.331"/>
						<rect x="2020.11" y="1853.948" fill="#454551" width="214.783" height="49.331"/>
						<rect x="2020.11" y="1964.01" fill="#454551" width="214.783" height="49.331"/>
						<rect x="2020.11" y="2074.066" fill="#454551" width="214.783" height="49.338"/>
					</g>
					<g>
						<rect x="487.957" y="1743.886" fill="#454551" width="179.006" height="49.331"/>
						<rect x="487.957" y="1853.948" fill="#454551" width="179.006" height="49.331"/>
						<rect x="487.957" y="1964.01" fill="#454551" width="179.006" height="49.331"/>
						<rect x="487.957" y="2074.066" fill="#454551" width="179.006" height="49.338"/>
					</g>
					<rect x="766.255" y="1462.746" fill="#2D2D38" width="1143.308" height="744.974"/>
					<rect x="1822.969" y="1462.746" fill="#454551" width="86.593" height="744.974"/>
				</g>
			</g>
		</g>
	</g>
</g>
</svg>
